<?xml version="1.0" encoding="UTF-8"?>
<svg version="1.1" xmlns="http://www.w3.org/2000/svg" width="500" height="500">
<path d="M0 0 C165 0 330 0 500 0 C500 165 500 330 500 500 C335 500 170 500 0 500 C0 335 0 170 0 0 Z " fill="#FEFEFE" transform="translate(0,0)"/>
<path d="M0 0 C0.80050781 0.24234375 1.60101563 0.4846875 2.42578125 0.734375 C33.40910947 11.63514 60.2953919 33.85594788 83 57 C84.65 58.65 86.3 60.3 88 62 C93.94 62 99.88 62 106 62 C106 85.1 106 108.2 106 132 C100.06 132 94.12 132 88 132 C87.67 123.75 87.34 115.5 87 107 C83.97050119 116.55611708 83.97050119 116.55611708 85 125 C85.185625 126.134375 85.37125 127.26875 85.5625 128.4375 C85.706875 129.283125 85.85125 130.12875 86 131 C83.69 131.33 81.38 131.66 79 132 C78.83636963 132.5978833 78.67273926 133.1957666 78.50415039 133.81176758 C74.60176537 147.49065402 68.48943037 160.84897667 60.6875 172.75 C60.29167725 173.36319092 59.89585449 173.97638184 59.48803711 174.6081543 C55.76335641 180.01273085 51.59833422 181.00583785 45.39453125 182.25390625 C44.32783203 182.46853516 43.26113281 182.68316406 42.16210938 182.90429688 C41.05673828 183.12150391 39.95136719 183.33871094 38.8125 183.5625 C37.72646484 183.78357422 36.64042969 184.00464844 35.52148438 184.23242188 C23.74019518 186.57452802 12.35878278 187.18650835 0.37133789 187.18530273 C-2.03322488 187.18747357 -4.43731576 187.20564154 -6.84179688 187.22460938 C-17.3725669 187.26342024 -27.57911778 186.49857084 -38 185 C-39.06162354 184.84861572 -40.12324707 184.69723145 -41.21704102 184.54125977 C-43.90410467 184.13197496 -46.57555705 183.67170192 -49.25 183.1875 C-50.57451172 182.97770508 -50.57451172 182.97770508 -51.92578125 182.76367188 C-57.44391094 181.76075388 -60.44460316 180.60411101 -64 176 C-65.61215729 173.66306384 -67.07708329 171.26862135 -68.5 168.8125 C-68.8909082 168.14686035 -69.28181641 167.4812207 -69.68457031 166.79541016 C-77.28957631 153.73161556 -82.35366452 140.09067168 -87.1875 125.8125 C-87.53272705 124.80300293 -87.8779541 123.79350586 -88.23364258 122.75341797 C-90.3030396 116.55891139 -91.89750259 110.43847845 -93 104 C-95.64 104 -98.28 104 -101 104 C-100.99214478 105.21901001 -100.99214478 105.21901001 -100.98413086 106.46264648 C-100.96343006 110.12092322 -100.95036197 113.77918767 -100.9375 117.4375 C-100.92912109 118.71689453 -100.92074219 119.99628906 -100.91210938 121.31445312 C-100.90727539 123.13686523 -100.90727539 123.13686523 -100.90234375 124.99609375 C-100.89448853 126.68496704 -100.89448853 126.68496704 -100.88647461 128.40795898 C-101 131 -101 131 -102 132 C-107.61 132 -113.22 132 -119 132 C-119 108.9 -119 85.8 -119 62 C-86.21483376 62 -86.21483376 62 -80.390625 67.52734375 C-75.73144077 73.2874996 -74.54797192 77.85939964 -74.67578125 85.14453125 C-75.35145835 91.09537413 -78.07822996 96.48996446 -82 101 C-76.60229768 97.09590846 -73.29787827 93.65019043 -72 87 C-70.93134552 78.99109507 -72.2946336 72.63838179 -77 66 C-79.58031369 63.85647997 -79.58031369 63.85647997 -82 63 C-81.41561581 59.69957789 -80.42912249 58.04540501 -78.078125 55.6796875 C-77.47186279 55.06714111 -76.86560059 54.45459473 -76.2409668 53.82348633 C-75.58394775 53.18048584 -74.92692871 52.53748535 -74.25 51.875 C-73.57042236 51.20557373 -72.89084473 50.53614746 -72.19067383 49.84643555 C-66.16889693 44.0058809 -59.88419167 38.80783063 -53 34 C-52.32066406 33.5246582 -51.64132813 33.04931641 -50.94140625 32.55957031 C-13.64336429 6.68031392 -13.64336429 6.68031392 -2.1484375 7.10546875 C2.04865023 8.29794157 5.83236541 10.03254716 9.75 11.9375 C10.57258301 12.33283936 11.39516602 12.72817871 12.24267578 13.13549805 C18.20581967 16.03865243 24.06755385 19.10998803 29.875 22.3125 C30.61717773 22.72040771 31.35935547 23.12831543 32.12402344 23.54858398 C36.05156694 25.7545452 39.53976497 28.09271851 43 31 C45.0204034 32.52140444 47.04126975 34.04219422 49.0625 35.5625 C58.18548435 42.51670276 66.55650625 50.24235832 74.37890625 58.63671875 C76.02964882 60.32181224 76.02964882 60.32181224 79 60 C64.01161862 42.43425145 46.72950534 28.87407179 26.4453125 17.89453125 C23.79757672 16.43857677 21.31049888 14.93797832 18.8125 13.25 C14.45492168 10.42981448 9.61005559 8.79440553 4.7578125 7.015625 C2 6 2 6 0 5 C-5.80783349 4.31515593 -10.0517324 6.41710461 -15.1875 8.8125 C-16.06390137 9.21702393 -16.94030273 9.62154785 -17.84326172 10.03833008 C-34.39594766 17.83088467 -48.9161968 27.35257998 -63 39 C-64.01296143 39.83144531 -64.01296143 39.83144531 -65.04638672 40.6796875 C-66.95713479 42.25462996 -68.85668129 43.84166271 -70.75 45.4375 C-71.29825439 45.89697021 -71.84650879 46.35644043 -72.41137695 46.82983398 C-75.90282573 49.83465836 -78.84194661 53.0594066 -81.71191406 56.66430664 C-82.13698242 57.10508545 -82.56205078 57.54586426 -83 58 C-83.66 58 -84.32 58 -85 58 C-85.33 58.99 -85.66 59.98 -86 61 C-87.32 61 -88.64 61 -90 61 C-88.51512205 55.83689496 -85.30813935 52.88700539 -81.5625 49.25 C-80.93287354 48.63092773 -80.30324707 48.01185547 -79.65454102 47.37402344 C-74.36600911 42.23349274 -68.83267688 37.51455781 -63 33 C-61.98421875 32.19046875 -60.9684375 31.3809375 -59.921875 30.546875 C-48.04837032 21.14535949 -35.71232075 13.45467351 -22 7 C-20.8140625 6.44054687 -19.628125 5.88109375 -18.40625 5.3046875 C-15.2799894 3.84717411 -12.15220098 2.40049645 -9 1 C-7.70255859 0.39091797 -7.70255859 0.39091797 -6.37890625 -0.23046875 C-3.64128163 -1.11603862 -2.66412899 -0.96877418 0 0 Z " fill="#474747" transform="translate(253,157)"/>
<path d="M0 0 C0.80050781 0.24234375 1.60101563 0.4846875 2.42578125 0.734375 C33.40910947 11.63514 60.2953919 33.85594788 83 57 C84.65 58.65 86.3 60.3 88 62 C93.94 62 99.88 62 106 62 C106 85.1 106 108.2 106 132 C100.06 132 94.12 132 88 132 C87.67 123.75 87.34 115.5 87 107 C83.97050119 116.55611708 83.97050119 116.55611708 85 125 C85.185625 126.134375 85.37125 127.26875 85.5625 128.4375 C85.706875 129.283125 85.85125 130.12875 86 131 C83.14839609 131.81434143 80.63373869 132.11881242 77.671875 132.09765625 C76.87265625 132.09443359 76.0734375 132.09121094 75.25 132.08789062 C74.425 132.07951172 73.6 132.07113281 72.75 132.0625 C71.90953125 132.05798828 71.0690625 132.05347656 70.203125 132.04882812 C68.13538599 132.03707961 66.06768376 132.01914522 64 132 C63.36882642 130.74788194 62.73885607 129.4951573 62.109375 128.2421875 C61.5829541 127.19587158 61.5829541 127.19587158 61.04589844 126.12841797 C57.63845923 119.19423146 56.56988975 113.77384458 57 106 C54.80655626 107.74403036 54.06200245 108.64839606 53.56762695 111.4519043 C53.54144287 112.39976807 53.51525879 113.34763184 53.48828125 114.32421875 C53.45283203 115.35224609 53.41738281 116.38027344 53.38085938 117.43945312 C53.34702148 119.04723633 53.34702148 119.04723633 53.3125 120.6875 C53.27833984 121.77095703 53.24417969 122.85441406 53.20898438 123.97070312 C53.1264625 126.64676977 53.06155614 129.32336903 53 132 C47.06 132 41.12 132 35 132 C35 108.9 35 85.8 35 62 C40.94 62 46.88 62 53 62 C53.33 70.25 53.66 78.5 54 87 C56.51751129 81.96497743 56.33146924 77.86786517 56.4609375 72.3125 C57.09006921 68.44653121 58.06299955 67.46400037 61 65 C61.99 63.515 61.99 63.515 63 62 C65.75711269 61.45498935 68.34152546 61.07450235 71.125 60.8125 C71.87910156 60.73064453 72.63320313 60.64878906 73.41015625 60.56445312 C75.27216607 60.3641103 77.13595811 60.18045964 79 60 C64.01161862 42.43425145 46.72950534 28.87407179 26.4453125 17.89453125 C23.79757672 16.43857677 21.31049888 14.93797832 18.8125 13.25 C14.45492168 10.42981448 9.61005559 8.79440553 4.7578125 7.015625 C2 6 2 6 0 5 C-5.80783349 4.31515593 -10.0517324 6.41710461 -15.1875 8.8125 C-16.06390137 9.21702393 -16.94030273 9.62154785 -17.84326172 10.03833008 C-34.39594766 17.83088467 -48.9161968 27.35257998 -63 39 C-64.01296143 39.83144531 -64.01296143 39.83144531 -65.04638672 40.6796875 C-66.95713479 42.25462996 -68.85668129 43.84166271 -70.75 45.4375 C-71.29825439 45.89697021 -71.84650879 46.35644043 -72.41137695 46.82983398 C-75.90282573 49.83465836 -78.84194661 53.0594066 -81.71191406 56.66430664 C-82.13698242 57.10508545 -82.56205078 57.54586426 -83 58 C-83.66 58 -84.32 58 -85 58 C-85.33 58.99 -85.66 59.98 -86 61 C-87.32 61 -88.64 61 -90 61 C-88.51512205 55.83689496 -85.30813935 52.88700539 -81.5625 49.25 C-80.93287354 48.63092773 -80.30324707 48.01185547 -79.65454102 47.37402344 C-74.36600911 42.23349274 -68.83267688 37.51455781 -63 33 C-61.47632813 31.78570312 -61.47632813 31.78570312 -59.921875 30.546875 C-48.04837032 21.14535949 -35.71232075 13.45467351 -22 7 C-20.8140625 6.44054687 -19.628125 5.88109375 -18.40625 5.3046875 C-15.2799894 3.84717411 -12.15220098 2.40049645 -9 1 C-7.70255859 0.39091797 -7.70255859 0.39091797 -6.37890625 -0.23046875 C-3.64128163 -1.11603862 -2.66412899 -0.96877418 0 0 Z " fill="#555656" transform="translate(253,157)"/>
<path d="M0 0 C6.6 0 13.2 0 20 0 C21.3889607 4.14381816 22.77695979 8.28793423 24.16259766 12.43286133 C24.63340178 13.84027201 25.10474628 15.24750205 25.57666016 16.65454102 C26.25828939 18.68717957 26.93791626 20.72047866 27.6171875 22.75390625 C28.02565918 23.97408447 28.43413086 25.1942627 28.85498047 26.45141602 C29.98426312 29.9512291 31.01088557 33.45865256 32 37 C32.42257669 29.269373 32.42257669 29.269373 30.5 21.875 C27.81282039 14.99935263 28.82948621 7.21841706 29 0 C34.94 0 40.88 0 47 0 C47 23.1 47 46.2 47 70 C40.4 70 33.8 70 27 70 C23.57673674 60.16909014 21.43845943 51.91163121 21.23828125 41.5234375 C21.11500244 37.50668653 21.11500244 37.50668653 19 32 C18.67 44.54 18.34 57.08 18 70 C12.06 70 6.12 70 0 70 C0 46.9 0 23.8 0 0 Z " fill="#1A1A1A" transform="translate(368,219)"/>
<path d="M0 0 C6.6 0 13.2 0 20 0 C21.3889607 4.14381816 22.77695979 8.28793423 24.16259766 12.43286133 C24.63340178 13.84027201 25.10474628 15.24750205 25.57666016 16.65454102 C26.25828939 18.68717957 26.93791626 20.72047866 27.6171875 22.75390625 C28.02565918 23.97408447 28.43413086 25.1942627 28.85498047 26.45141602 C29.98426312 29.9512291 31.01088557 33.45865256 32 37 C32.31404694 31.63793926 32.1602487 27.011638 30.5 21.875 C28.26650875 14.58731728 28.80597975 7.56678984 29 0 C34.94 0 40.88 0 47 0 C47 23.1 47 46.2 47 70 C40.4 70 33.8 70 27 70 C24.25579718 62.03295955 22.54627749 55.10911666 22.37109375 46.6796875 C21.86732565 41.68442911 20.32100631 36.84368981 19 32 C18.67 44.54 18.34 57.08 18 70 C12.06 70 6.12 70 0 70 C0 46.9 0 23.8 0 0 Z " fill="#1A1A1A" transform="translate(30,219)"/>
<path d="M0 0 C5.94 0 11.88 0 18 0 C18.33 8.25 18.66 16.5 19 25 C21.51751129 19.96497743 21.33146924 15.86786517 21.4609375 10.3125 C22.09006921 6.44653121 23.06299955 5.46400037 26 3 C26.66 2.01 27.32 1.02 28 0 C29.87939453 -0.34057617 29.87939453 -0.34057617 32.1328125 -0.29296875 C32.93847656 -0.28330078 33.74414062 -0.27363281 34.57421875 -0.26367188 C35.83685547 -0.2259668 35.83685547 -0.2259668 37.125 -0.1875 C37.97449219 -0.17396484 38.82398438 -0.16042969 39.69921875 -0.14648438 C41.79974837 -0.11108219 43.89995293 -0.05727401 46 0 C45.40764575 3.92798844 44.19997496 6.79384002 42.2421875 10.23828125 C41.42814453 11.71651367 41.42814453 11.71651367 40.59765625 13.22460938 C39.45233402 15.27761895 38.29611019 17.32458588 37.12890625 19.36523438 C36.58878906 20.35458984 36.04867187 21.34394531 35.4921875 22.36328125 C34.99058105 23.25313721 34.48897461 24.14299316 33.97216797 25.05981445 C31.83073 31.53629297 34.28568463 37.48935697 36.94140625 43.45703125 C37.22853989 44.12667404 37.51567352 44.79631683 37.81150818 45.48625183 C38.71891653 47.59930053 39.63963371 49.70616214 40.5625 51.8125 C41.48718165 53.93736695 42.40881394 56.06341933 43.32420349 58.19230652 C43.89152852 59.51034171 44.4644452 60.82598764 45.04359436 62.13887024 C46.25909341 64.95058834 47 66.89872431 47 70 C41.06 70 35.12 70 29 70 C24.17645793 60.35291586 21.41401147 54.59120008 22 44 C19.80655626 45.74403036 19.06200245 46.64839606 18.56762695 49.4519043 C18.54144287 50.39976807 18.51525879 51.34763184 18.48828125 52.32421875 C18.45283203 53.35224609 18.41738281 54.38027344 18.38085938 55.43945312 C18.35830078 56.51130859 18.33574219 57.58316406 18.3125 58.6875 C18.27833984 59.77095703 18.24417969 60.85441406 18.20898438 61.97070312 C18.1264625 64.64676977 18.06155614 67.32336903 18 70 C12.06 70 6.12 70 0 70 C0 46.9 0 23.8 0 0 Z " fill="#191A1A" transform="translate(288,219)"/>
<path d="M0 0 C4.61222269 2.99426757 8.43633502 7.7435446 9.71484375 13.11328125 C9.71484375 16.08328125 9.71484375 19.05328125 9.71484375 22.11328125 C3.77484375 22.11328125 -2.16515625 22.11328125 -8.28515625 22.11328125 C-8.7734375 19.83463542 -9.26171875 17.55598958 -9.75 15.27734375 C-10.20846318 13.08381825 -10.20846318 13.08381825 -11.28515625 11.11328125 C-13.26515625 12.10328125 -13.26515625 12.10328125 -15.28515625 13.11328125 C-15.33455715 18.89736684 -15.37087625 24.68132989 -15.39501953 30.46557617 C-15.40508332 32.43369689 -15.41873559 34.40180263 -15.43603516 36.36987305 C-15.46026684 39.19714043 -15.47163548 42.0242103 -15.48046875 44.8515625 C-15.49079132 45.73290359 -15.50111389 46.61424469 -15.51174927 47.52229309 C-15.51190033 48.34291733 -15.51205139 49.16354156 -15.51220703 50.0090332 C-15.51886887 51.09158134 -15.51886887 51.09158134 -15.52566528 52.19599915 C-15.38900272 54.44157056 -15.38900272 54.44157056 -13.28515625 57.11328125 C-10.72232883 57.84293491 -10.72232883 57.84293491 -8.28515625 58.11328125 C-8.28515625 57.45328125 -8.28515625 56.79328125 -8.28515625 56.11328125 C-8.94515625 55.78328125 -9.60515625 55.45328125 -10.28515625 55.11328125 C-9.95515625 51.15328125 -9.62515625 47.19328125 -9.28515625 43.11328125 C-10.27515625 43.11328125 -11.26515625 43.11328125 -12.28515625 43.11328125 C-12.28515625 39.15328125 -12.28515625 35.19328125 -12.28515625 31.11328125 C-8.8059389 31.08644924 -5.32692586 31.06652455 -1.84765625 31.05078125 C-0.35782227 31.03821289 -0.35782227 31.03821289 1.16210938 31.02539062 C2.5784668 31.02055664 2.5784668 31.02055664 4.0234375 31.015625 C4.89798584 31.01038818 5.77253418 31.00515137 6.67358398 30.99975586 C8.71484375 31.11328125 8.71484375 31.11328125 9.71484375 32.11328125 C10.0252263 35.79206362 9.99344681 39.48553429 10.02734375 43.17578125 C10.05634766 44.20123047 10.08535156 45.22667969 10.11523438 46.28320312 C10.17502603 53.47200022 9.28848401 59.1709371 4.33764648 64.63256836 C-1.92780527 70.30364474 -8.79979347 70.57089865 -16.87109375 70.41796875 C-22.42206424 69.92257321 -25.94917302 68.41512484 -29.91390991 64.5083313 C-34.63490308 58.82509986 -35.14649244 54.28545188 -35.01171875 47.04296875 C-35.01271576 46.00310822 -35.01371277 44.96324768 -35.01473999 43.89187622 C-35.01008042 41.70502025 -34.99075262 39.51815137 -34.95751953 37.33154297 C-34.91019313 33.99088479 -34.91642797 30.65340999 -34.9296875 27.3125 C-34.91853646 25.18097063 -34.90431827 23.04945463 -34.88671875 20.91796875 C-34.88854156 19.92409149 -34.89036438 18.93021423 -34.89224243 17.90621948 C-34.77166226 11.99409674 -34.1649767 8.64467459 -30.28515625 4.11328125 C-22.51356996 -3.24927418 -9.70782482 -4.33055187 0 0 Z " fill="#1A1C1C" transform="translate(457.28515625,219.88671875)"/>
<path d="M0 0 C27 0 27 0 35 5 C39.66014999 10.60188863 40.74150525 17.03420356 40.4296875 24.16015625 C39.5870808 29.72902053 37.28388192 34.30079488 33 38 C32.34 38 31.68 38 31 38 C31.36351562 38.96486328 31.36351562 38.96486328 31.734375 39.94921875 C39.2276205 60.15216144 39.2276205 60.15216144 40 70 C35.38 70 30.76 70 26 70 C23.33333333 60.66666667 20.66666667 51.33333333 18 42 C16.68 41.67 15.36 41.34 14 41 C14.00523682 41.84296631 14.01047363 42.68593262 14.01586914 43.55444336 C14.03287826 46.67227936 14.04543406 49.79009177 14.05493164 52.90795898 C14.05997057 54.25920386 14.06680177 55.61044326 14.07543945 56.96166992 C14.08752419 58.90020434 14.09269828 60.838778 14.09765625 62.77734375 C14.10289307 63.94515381 14.10812988 65.11296387 14.11352539 66.31616211 C14 69 14 69 13 70 C8.71 70 4.42 70 0 70 C0 46.9 0 23.8 0 0 Z " fill="#191B1B" transform="translate(241,219)"/>
<path d="M0 0 C6.6 0 13.2 0 20 0 C23.3655964 11.98748554 26.00973268 24.06165117 28.51928711 36.25488281 C29.19213994 39.52253346 29.87195021 42.788681 30.55273438 46.0546875 C30.98738383 48.1509578 31.42164277 50.24730912 31.85546875 52.34375 C32.05649704 53.31050659 32.25752533 54.27726318 32.46464539 55.27331543 C32.65186661 56.18536743 32.83908783 57.09741943 33.03198242 58.03710938 C33.19534592 58.82903687 33.35870941 59.62096436 33.52702332 60.43688965 C34.11231266 63.60863413 34.54387443 66.80712103 35 70 C29.06 70 23.12 70 17 70 C15 64 15 64 15 59 C11.7 59 8.4 59 5 59 C4.34 62.63 3.68 66.26 3 70 C-2.61 70 -8.22 70 -14 70 C-13.47770812 61.73549911 -12.30183351 54.08856219 -10.3125 46.0625 C-7.61864798 34.83329481 -5.20732823 23.57300459 -2.91723633 12.25610352 C-2.68029053 11.09006592 -2.44334473 9.92402832 -2.19921875 8.72265625 C-1.99127686 7.68890869 -1.78333496 6.65516113 -1.5690918 5.59008789 C-1 3 -1 3 0 0 Z " fill="#1A1A1A" transform="translate(196,219)"/>
<path d="M0 0 C32.78516624 0 32.78516624 0 38.609375 5.52734375 C43.26533625 11.28351502 44.46959154 15.86331721 44.3125 23.1484375 C43.6677313 29.03195185 41.52685874 33.98071693 37.0625 37.9375 C32.35026988 41.11104273 28.87601475 42.26207264 23.1875 42.125 C22.21167969 42.10695313 21.23585937 42.08890625 20.23046875 42.0703125 C19.12638672 42.03550781 19.12638672 42.03550781 18 42 C18.00785522 43.21901001 18.00785522 43.21901001 18.01586914 44.46264648 C18.03656994 48.12092322 18.04963803 51.77918767 18.0625 55.4375 C18.07087891 56.71689453 18.07925781 57.99628906 18.08789062 59.31445312 C18.09272461 61.13686523 18.09272461 61.13686523 18.09765625 62.99609375 C18.10551147 64.68496704 18.10551147 64.68496704 18.11352539 66.40795898 C18 69 18 69 17 70 C11.39 70 5.78 70 0 70 C0 46.9 0 23.8 0 0 Z " fill="#191C1C" transform="translate(134,219)"/>
<path d="M0 0 C13.53 0 27.06 0 41 0 C41 3.63 41 7.26 41 11 C40 12 40 12 37.86694336 12.11352539 C36.95050049 12.10828857 36.03405762 12.10305176 35.08984375 12.09765625 C34.10048828 12.09443359 33.11113281 12.09121094 32.09179688 12.08789062 C31.05087891 12.07951172 30.00996094 12.07113281 28.9375 12.0625 C27.89271484 12.05798828 26.84792969 12.05347656 25.77148438 12.04882812 C23.18096546 12.03699927 20.59047578 12.01906319 18 12 C18 17.61 18 23.22 18 29 C22.62 29 27.24 29 32 29 C32.09765625 37.49609375 32.09765625 37.49609375 32 40 C31 41 31 41 28.05859375 41.09765625 C24.70572917 41.06510417 21.35286458 41.03255208 18 41 C18 46.61 18 52.22 18 58 C25.59 58 33.18 58 41 58 C41 61.63 41 65.26 41 69 C40 70 40 70 36.21459961 70.11352539 C34.52717272 70.11327425 32.8397407 70.10771112 31.15234375 70.09765625 C29.97436218 70.09614563 29.97436218 70.09614563 28.77258301 70.09460449 C25.82754057 70.08935638 22.88251888 70.07539523 19.9375 70.0625 C13.358125 70.041875 6.77875 70.02125 0 70 C0 46.9 0 23.8 0 0 Z " fill="#191A1A" transform="translate(86,219)"/>
<path d="M0 0 C0.99 0.33 1.98 0.66 3 1 C8.94 1 14.88 1 21 1 C21 24.1 21 47.2 21 71 C15.06 71 9.12 71 3 71 C2.67 62.75 2.34 54.5 2 46 C1.01 49.63 0.02 53.26 -1 57 C-1.66 57.66 -2.32 58.32 -3 59 C-5.84614582 53.30770836 -3.30205898 45.65764082 -2.125 39.75 C-0.73032954 32.35656623 0.54527127 24.97223065 1.4375 17.5 C1.59484619 16.34516113 1.59484619 16.34516113 1.75537109 15.16699219 C2.3074137 10.12582422 1.42443299 7.37298258 -1 3 C-0.67 2.01 -0.34 1.02 0 0 Z " fill="#1C1818" transform="translate(338,218)"/>
<path d="M0 0 C0.68642578 0.70189453 0.68642578 0.70189453 1.38671875 1.41796875 C3.2865926 3.28104117 4.7871208 3.83118478 7.3125 4.625 C8.1065625 4.87765625 8.900625 5.1303125 9.71875 5.390625 C12.14574687 6.09911985 12.14574687 6.09911985 15.3125 6.375 C18.92903405 7.21605443 19.98908449 8.98362673 22 12 C20.68 12.33 19.36 12.66 18 13 C18.66386719 13.31710938 19.32773437 13.63421875 20.01171875 13.9609375 C26.0341262 17.14358202 29.54771881 20.01933846 32.2265625 26.35546875 C34.39848648 33.78169368 33.34343724 41.07330091 30 48 C27.9375 50.5625 27.9375 50.5625 26 52 C25.34 52 24.68 52 24 52 C24.27263672 52.79172607 24.54527344 53.58345215 24.82617188 54.39916992 C25.83862198 57.35106772 26.84418851 60.30519694 27.84521484 63.26098633 C28.49181419 65.16341566 29.14624942 67.06317587 29.80078125 68.96289062 C30.20683594 70.16494141 30.61289062 71.36699219 31.03125 72.60546875 C31.40830078 73.71043701 31.78535156 74.81540527 32.17382812 75.95385742 C32.94801163 78.80831592 33.17197068 81.06455605 33 84 C31.68 84 30.36 84 29 84 C26.5034061 76.60230577 24.03026155 69.1981344 21.6875 61.75 C21.36136719 60.71359375 21.03523438 59.6771875 20.69921875 58.609375 C20 56 20 56 20 53 C21.66666667 51.33333333 23.33333333 49.66666667 25 48 C28.90175984 42.48371885 28.85759196 36.50136379 28 30 C26.22986556 24.24116262 23.97604498 19.7069331 18.45483398 16.78125 C12.58258196 14.91240798 6.16673039 15.31200079 0.0625 15.25 C-7.3934375 15.12625 -7.3934375 15.12625 -15 15 C-15 28.2 -15 41.4 -15 55 C-17 53 -17 53 -17.125 49.375 C-17.08375 48.26125 -17.0425 47.1475 -17 46 C-20.12197478 47.3089572 -20.12197478 47.3089572 -22 50 C-22.50756724 56.63462894 -20.93415131 62.80019517 -19.5 69.25 C-19.02862944 71.40046893 -18.55976045 73.55148816 -18.09375 75.703125 C-17.88427734 76.64833008 -17.67480469 77.59353516 -17.45898438 78.56738281 C-17 81 -17 81 -17 84 C-18.32 84 -19.64 84 -21 84 C-24.51379232 71.68486837 -27.10798264 59.23809281 -29.625 46.6875 C-30.0230188 44.72061835 -30.42145406 42.75382093 -30.8203125 40.78710938 C-32.56081101 32.19419375 -34.28158554 23.59735531 -36 15 C-40.95 15 -45.9 15 -51 15 C-51.33 14.01 -51.66 13.02 -52 12 C-51.01 12.33 -50.02 12.66 -49 13 C-47.66636297 13.14403348 -46.32781954 13.24590423 -44.98828125 13.31640625 C-44.23095703 13.35830078 -43.47363281 13.40019531 -42.69335938 13.44335938 C-41.51483398 13.50233398 -41.51483398 13.50233398 -40.3125 13.5625 C-39.11657227 13.62727539 -39.11657227 13.62727539 -37.89648438 13.69335938 C-35.93118553 13.79927368 -33.96561504 13.90012551 -32 14 C-30.51856658 17.3630928 -29.82937039 20.17178091 -29.5 23.8125 C-28.44121121 29.79734848 -24.87822186 32.18926309 -20.1171875 35.6015625 C-19.41851562 36.06304687 -18.71984375 36.52453125 -18 37 C-18.12117188 36.41734375 -18.24234375 35.8346875 -18.3671875 35.234375 C-19.57357992 29.3323321 -20.60703893 23.42097349 -21.53515625 17.46875 C-21.88171692 15.00824425 -21.88171692 15.00824425 -23 13 C-25.01669827 11.86649466 -25.01669827 11.86649466 -27 11 C-21.79937304 6.04702194 -21.79937304 6.04702194 -17.8125 5.8125 C-16.884375 5.874375 -15.95625 5.93625 -15 6 C-14.01 5.34 -13.02 4.68 -12 4 C-10.68 4 -9.36 4 -8 4 C-8 3.34 -8 2.68 -8 2 C-4.76746204 -0.15502531 -3.74849077 -0.46856135 0 0 Z " fill="#808D96" transform="translate(252,204)"/>
<path d="M0 0 C2.81360676 2.81360676 3.02743917 6.04167425 3.8125 9.8125 C5.52651994 17.54065355 7.93777259 24.69047265 11 32 C11.34417969 32.90105469 11.68835938 33.80210937 12.04296875 34.73046875 C14.73679166 41.6254884 18.04035836 48.18135712 21.4375 54.75 C21.89205566 55.63751953 22.34661133 56.52503906 22.81494141 57.43945312 C24.15607351 59.99444615 25.55794754 62.50076124 27 65 C27.41580322 65.76449463 27.83160645 66.52898926 28.26000977 67.31665039 C31.0598164 71.8097686 33.44357753 73.51755132 38.59765625 74.83984375 C40.74658745 75.23955287 42.90220256 75.60465227 45.0625 75.9375 C46.11888672 76.13150391 47.17527344 76.32550781 48.26367188 76.52539062 C77.59223505 81.68421884 106.96482516 79.5208963 136 74 C136.87011719 73.8565918 137.74023438 73.71318359 138.63671875 73.56542969 C141.01971503 73.16730591 141.01971503 73.16730591 144 72 C145.34987618 69.85375055 145.34987618 69.85375055 146 67 C146.68153107 65.68415551 147.39771688 64.38601085 148.13671875 63.1015625 C148.75063477 62.02201294 148.75063477 62.02201294 149.37695312 60.9206543 C149.80943359 60.16308838 150.24191406 59.40552246 150.6875 58.625 C156.09367817 49.03374159 160.99276918 39.26852898 165 29 C166.32 29 167.64 29 169 29 C165.07404174 43.34492185 158.84817887 57.3017436 150.6875 69.75 C150.29167725 70.36319092 149.89585449 70.97638184 149.48803711 71.6081543 C145.76335641 77.01273085 141.59833422 78.00583785 135.39453125 79.25390625 C134.32783203 79.46853516 133.26113281 79.68316406 132.16210938 79.90429688 C130.50405273 80.23010742 130.50405273 80.23010742 128.8125 80.5625 C127.72646484 80.78357422 126.64042969 81.00464844 125.52148438 81.23242188 C113.74019518 83.57452802 102.35878278 84.18650835 90.37133789 84.18530273 C87.96677512 84.18747357 85.56268424 84.20564154 83.15820312 84.22460938 C72.6274331 84.26342024 62.42088222 83.49857084 52 82 C50.4075647 81.77292358 50.4075647 81.77292358 48.78295898 81.54125977 C46.09589533 81.13197496 43.42444295 80.67170192 40.75 80.1875 C39.86699219 80.04763672 38.98398438 79.90777344 38.07421875 79.76367188 C32.55608906 78.76075388 29.55539684 77.60411101 26 73 C24.38784271 70.66306384 22.92291671 68.26862135 21.5 65.8125 C21.1090918 65.14686035 20.71818359 64.4812207 20.31542969 63.79541016 C12.71042369 50.73161556 7.64633548 37.09067168 2.8125 22.8125 C2.46727295 21.80300293 2.1220459 20.79350586 1.76635742 19.75341797 C-0.3030396 13.55891139 -1.89750259 7.43847845 -3 1 C-2.01 0.67 -1.02 0.34 0 0 Z " fill="#535353" transform="translate(163,260)"/>
<path d="M0 0 C1.16789062 0.55880859 1.16789062 0.55880859 2.359375 1.12890625 C3.12765625 1.49886719 3.8959375 1.86882812 4.6875 2.25 C6.0410511 2.81397963 7.3952282 3.37645901 8.75 3.9375 C34.13459747 15.28331139 57.86439293 32.92688701 75.6875 54.25 C73.89990234 54.93847656 73.89990234 54.93847656 71.6875 55.25 C69.98681641 54.06933594 69.98681641 54.06933594 68.2890625 52.234375 C67.65178223 51.565271 67.01450195 50.89616699 66.35791016 50.20678711 C65.34543213 49.11442749 65.34543213 49.11442749 64.3125 48 C57.23824375 40.64345294 49.91004162 34.27513826 41.6875 28.25 C40.36492187 27.26966797 40.36492187 27.26966797 39.015625 26.26953125 C29.17995628 19.17469378 18.69950107 13.65364924 7.8125 8.375 C6.81323486 7.88612305 5.81396973 7.39724609 4.78442383 6.89355469 C3.82689209 6.43625977 2.86936035 5.97896484 1.8828125 5.5078125 C1.02703613 5.0967627 0.17125977 4.68571289 -0.71044922 4.26220703 C-5.86273532 2.25794937 -9.42449392 1.8644181 -14.56225586 4.09057617 C-15.20171143 4.39068604 -15.84116699 4.6907959 -16.5 5 C-17.18779541 5.31364502 -17.87559082 5.62729004 -18.58422852 5.95043945 C-43.15643423 17.46513731 -67.23229707 33.8235112 -85.3125 54.25 C-85.6425 55.24 -85.9725 56.23 -86.3125 57.25 C-85.590625 57.415 -84.86875 57.58 -84.125 57.75 C-79.30556334 60.32036622 -77.00302372 65.17842885 -75.3125 70.25 C-74.7573336 76.85861544 -74.65028178 83.50369049 -78.3125 89.25 C-80.73077497 91.93529283 -83.19589222 94.39637239 -86.3125 96.25 C-87.3025 95.92 -88.2925 95.59 -89.3125 95.25 C-88.384375 94.59 -87.45625 93.93 -86.5 93.25 C-82.01793292 89.45666663 -80.67328169 85.30550916 -79.99609375 79.5703125 C-79.72652379 73.29194125 -80.51437947 68.35661937 -84.3125 63.25 C-88.78597906 58.67381351 -92.08184878 57.14072224 -98.4140625 56.93359375 C-100.23164063 56.87075195 -100.23164063 56.87075195 -102.0859375 56.80664062 C-103.35695312 56.76732422 -104.62796875 56.72800781 -105.9375 56.6875 C-107.855625 56.62272461 -107.855625 56.62272461 -109.8125 56.55664062 C-112.97905348 56.45030114 -116.14568753 56.34827167 -119.3125 56.25 C-119.3125 55.92 -119.3125 55.59 -119.3125 55.25 C-118.62623535 55.22494385 -117.9399707 55.1998877 -117.23291016 55.17407227 C-114.13424183 55.05828573 -111.03589077 54.93548115 -107.9375 54.8125 C-106.85726562 54.77318359 -105.77703125 54.73386719 -104.6640625 54.69335938 C-103.1171875 54.63051758 -103.1171875 54.63051758 -101.5390625 54.56640625 C-100.58596191 54.52974854 -99.63286133 54.49309082 -98.65087891 54.45532227 C-96.29117651 54.39236535 -96.29117651 54.39236535 -94.3125 53.25 C-94.3125 53.91 -94.3125 54.57 -94.3125 55.25 C-92.33713255 54.90213292 -92.33713255 54.90213292 -90.3125 54.25 C-89.9825 53.59 -89.6525 52.93 -89.3125 52.25 C-88.6525 52.25 -87.9925 52.25 -87.3125 52.25 C-87.04308594 51.65574219 -86.77367187 51.06148437 -86.49609375 50.44921875 C-82.71801765 43.42922916 -75.02621999 38.41837045 -68.92382812 33.54931641 C-67.19943877 32.15883154 -65.49776939 30.74332732 -63.796875 29.32421875 C-55.41465041 22.38670827 -46.82403342 16.52352668 -37.3125 11.25 C-36.67779785 10.89421875 -36.0430957 10.5384375 -35.38916016 10.171875 C-9.13979668 -4.47523002 -9.13979668 -4.47523002 0 0 Z " fill="#EAEBEB" transform="translate(257.3125,162.75)"/>
<path d="M0 0 C0.99 0 1.98 0 3 0 C3.22139648 0.66942627 3.44279297 1.33885254 3.67089844 2.02856445 C4.6956106 5.12376032 5.72279338 8.21813112 6.75 11.3125 C7.09804687 12.36501953 7.44609375 13.41753906 7.8046875 14.50195312 C11.68225086 26.17054656 15.78237514 37.6345068 21.00048828 48.77636719 C22.04842414 51.10773011 22.97070764 53.47160839 23.90234375 55.8515625 C27.4924459 64.35397923 27.4924459 64.35397923 34.29589844 70.24072266 C40.68024213 72.5624124 47.28098732 73.28696673 54 74 C55.58041888 74.22893181 57.15994076 74.4641838 58.73828125 74.70703125 C79.40340418 77.64643798 100.68653945 76.63040062 121.24267578 73.42675781 C122.99578439 73.15542491 124.75193843 72.90262668 126.51123047 72.67480469 C132.5134125 71.88189744 137.93461889 71.04853461 142.39453125 66.625 C144.6433443 63.21851395 146.34773756 59.71596424 148 56 C148.87295221 54.14226553 149.74810848 52.28556578 150.625 50.4296875 C153.92504864 43.35948785 157.13104079 36.25706378 160 29 C161.32 29.33 162.64 29.66 164 30 C159.45044983 42.18201921 153.88516035 54.04792912 147.5 65.375 C147.16911377 65.99914795 146.83822754 66.6232959 146.49731445 67.26635742 C144.21017433 71.17344203 141.87132799 73.06350484 137.54882812 74.39550781 C131.74443247 75.77210586 125.89506513 76.78995297 120 77.6875 C119.28390564 77.79772491 118.56781128 77.90794983 117.83001709 78.02151489 C95.81392082 81.33223121 73.01013229 81.55173369 51 78 C50.16065918 77.87109375 49.32131836 77.7421875 48.45654297 77.609375 C45.83827492 77.19222885 43.23227552 76.73079186 40.625 76.25 C39.83311279 76.11754883 39.04122559 75.98509766 38.2253418 75.84863281 C33.5983029 74.906246 30.95889297 73.73323909 28.08251953 69.72167969 C27.72528809 69.15352539 27.36805664 68.58537109 27 68 C26.63374512 67.41895508 26.26749023 66.83791016 25.89013672 66.23925781 C24.75472129 64.34908064 23.68244116 62.43481681 22.625 60.5 C22.23852295 59.79931396 21.8520459 59.09862793 21.45385742 58.37670898 C20.29235143 56.25649963 19.14421522 54.1295817 18 52 C17.50765869 51.09338623 17.50765869 51.09338623 17.00537109 50.16845703 C8.67971446 34.72648141 2.66244838 17.37181667 0 0 Z " fill="#E9E9E9" transform="translate(164,260)"/>
<path d="M0 0 C4.62 0 9.24 0 14 0 C14.33 1.65 14.66 3.3 15 5 C15.36351562 5.59039062 15.72703125 6.18078125 16.1015625 6.7890625 C17.52662828 10.2959635 16.82470826 13.70976508 16.375 17.375 C16.28234863 18.19774414 16.18969727 19.02048828 16.09423828 19.86816406 C15.18074688 27.48106745 13.82053999 35.00727825 12.32177734 42.52490234 C10.95392747 49.5268987 9.96173541 55.54049904 13 62.25 C14.31314379 65.18633541 15 66.74703897 15 70 C13.68 70 12.36 70 11 70 C8.82383829 65.01027672 6.67015191 60.0116584 4.53637695 55.00366211 C3.80804535 53.3028193 3.07373182 51.60452475 2.33325195 49.90893555 C1.26736362 47.4653489 0.22361817 45.01328069 -0.81640625 42.55859375 C-1.14967422 41.80726669 -1.4829422 41.05593964 -1.8263092 40.28184509 C-3.84148639 35.45018289 -4.36644884 32.22606076 -3 27 C-1.80078125 24.14160156 -1.80078125 24.14160156 -0.3125 21.390625 C0.22117187 20.38902344 0.75484375 19.38742188 1.3046875 18.35546875 C1.86414063 17.33066406 2.42359375 16.30585938 3 15.25 C4.10589916 13.19363912 5.21014454 11.13638773 6.3125 9.078125 C7.04919922 7.72315918 7.04919922 7.72315918 7.80078125 6.34082031 C9.10168943 3.94678678 9.10168943 3.94678678 10 1 C6.7 1 3.4 1 0 1 C0 0.67 0 0.34 0 0 Z " fill="#05F3F3" transform="translate(324,218)"/>
<path d="M0 0 C1.32 0 2.64 0 4 0 C3.99333817 1.37396187 3.99333817 1.37396187 3.98654175 2.77568054 C3.94644947 11.4124885 3.91600764 20.04926516 3.89637566 28.68614483 C3.88594334 33.12633424 3.87179418 37.56644668 3.84912109 42.0065918 C3.82737309 46.29245064 3.81542722 50.5782355 3.81024551 54.86414528 C3.80655328 56.49839251 3.79934326 58.13263574 3.78853989 59.76685143 C3.77399889 62.05779105 3.77202314 64.34842586 3.77294922 66.6394043 C3.76628738 68.59465279 3.76628738 68.59465279 3.75949097 70.58940125 C4.00528224 74.0749061 4.42708704 77.42708704 7 80 C7.04080783 81.99958364 7.04254356 84.00045254 7 86 C5.37581255 86.08090971 3.75048255 86.13914995 2.125 86.1875 C1.22007812 86.22230469 0.31515625 86.25710938 -0.6171875 86.29296875 C-1.79667969 86.14794922 -1.79667969 86.14794922 -3 86 C-3.66 85.01 -4.32 84.02 -5 83 C-4.67 82.34 -4.34 81.68 -4 81 C-4.39938767 78.90178785 -4.39938767 78.90178785 -5 77 C-6.65 76.67 -8.3 76.34 -10 76 C-10 74.68 -10 73.36 -10 72 C-14.29 72 -18.58 72 -23 72 C-23 71.34 -23 70.68 -23 70 C-12.605 69.505 -12.605 69.505 -2 69 C-2.433125 67.13214844 -2.86625 65.26429688 -3.3125 63.33984375 C-3.87539531 60.87248598 -4.43787344 58.40503302 -5 55.9375 C-5.42925781 54.09381836 -5.42925781 54.09381836 -5.8671875 52.21289062 C-6.27324219 50.41948242 -6.27324219 50.41948242 -6.6875 48.58984375 C-6.93886719 47.49534912 -7.19023437 46.40085449 -7.44921875 45.27319336 C-8.20250182 40.7965683 -8.88817674 36.64947109 -6.6875 32.5625 C-5 31 -5 31 -2 31 C-1.67 33.31 -1.34 35.62 -1 38 C-0.67 25.46 -0.34 12.92 0 0 Z " fill="#E4595E" transform="translate(237,219)"/>
<path d="M0 0 C1.32 0 2.64 0 4 0 C4.07435222 4.75053511 4.12869691 9.50072887 4.16479492 14.25170898 C4.17984876 15.86667789 4.20029648 17.48160613 4.22631836 19.09643555 C4.26285286 21.42246555 4.27976015 23.74795341 4.29296875 26.07421875 C4.30845261 26.79212082 4.32393646 27.51002289 4.33988953 28.24967957 C4.34135788 32.65830599 3.78413906 35.52627779 1 39 C0.34 39 -0.32 39 -1 39 C-1 41.31 -1 43.62 -1 46 C2.3 46 5.6 46 9 46 C9 45.34 9 44.68 9 44 C9.99 43.67 10.98 43.34 12 43 C10.84826645 45.46800047 9.95216435 47.04783565 8 49 C4.875 48.625 4.875 48.625 2 48 C0.66667905 50.6666419 1.32897967 52.16680303 2 55 C0.515 55.495 0.515 55.495 -1 56 C-0.97679687 56.84304688 -0.95359375 57.68609375 -0.9296875 58.5546875 C-0.90261719 60.19824219 -0.90261719 60.19824219 -0.875 61.875 C-0.85179687 62.96554687 -0.82859375 64.05609375 -0.8046875 65.1796875 C-1 68 -1 68 -3 70 C-8.56818182 69.43181818 -8.56818182 69.43181818 -10 68 C-10.07244053 65.98035801 -10.08377188 63.95832876 -10.0625 61.9375 C-10.05347656 60.83277344 -10.04445312 59.72804688 -10.03515625 58.58984375 C-10.02355469 57.73519531 -10.01195312 56.88054687 -10 56 C-10.99 55.67 -11.98 55.34 -13 55 C-13.125 49.25 -13.125 49.25 -12 47 C-13.65 47 -15.3 47 -17 47 C-17 47.66 -17 48.32 -17 49 C-19.88437779 47.70700306 -21.87219421 46.34058637 -24 44 C-23.67 43.34 -23.34 42.68 -23 42 C-22.34 42.66 -21.68 43.32 -21 44 C-18.56747339 44.46162427 -18.56747339 44.46162427 -15.875 44.625 C-14.96492187 44.69976562 -14.05484375 44.77453125 -13.1171875 44.8515625 C-12.41851562 44.90054688 -11.71984375 44.94953125 -11 45 C-11.90758175 41.69380934 -12.79996899 38.47785185 -14.125 35.3125 C-15 33 -15 33 -15 29 C-10.38 28.67 -5.76 28.34 -1 28 C-0.67 18.76 -0.34 9.52 0 0 Z " fill="#7F7A7B" transform="translate(255,260)"/>
<path d="M0 0 C2.5 0.25 2.5 0.25 4.5 2.25 C4.4765625 4.4140625 4.4765625 4.4140625 4.125 6.875 C3.95871094 8.10089844 3.95871094 8.10089844 3.7890625 9.3515625 C3.64597656 10.29128906 3.64597656 10.29128906 3.5 11.25 C4.16 10.92 4.82 10.59 5.5 10.25 C6.15772428 7.22065509 6.15772428 7.22065509 6.5 4.25 C8.15 4.58 9.8 4.91 11.5 5.25 C11.5 7.23 11.5 9.21 11.5 11.25 C12.16 10.92 12.82 10.59 13.5 10.25 C14.15555119 7.72266765 14.15555119 7.72266765 14.5 5.25 C16.975 5.745 16.975 5.745 19.5 6.25 C19.5 7.24 19.5 8.23 19.5 9.25 C18.84 9.25 18.18 9.25 17.5 9.25 C17.5 9.91 17.5 10.57 17.5 11.25 C18.53125 11.3325 19.5625 11.415 20.625 11.5 C25.81515668 12.50454645 28.91034574 13.96173453 31.984375 18.38671875 C35.82142552 25.2524524 36.6350717 31.08542378 34.953125 38.73828125 C33.65701786 43.13784493 32.29929802 46.43116599 28.5 49.25 C27.84 49.25 27.18 49.25 26.5 49.25 C26.77263672 50.04172607 27.04527344 50.83345215 27.32617188 51.64916992 C28.33862198 54.60106772 29.34418851 57.55519694 30.34521484 60.51098633 C30.99181419 62.41341566 31.64624942 64.31317587 32.30078125 66.21289062 C32.70683594 67.41494141 33.11289062 68.61699219 33.53125 69.85546875 C34.09682617 71.51292114 34.09682617 71.51292114 34.67382812 73.20385742 C35.44801163 76.05831592 35.67197068 78.31455605 35.5 81.25 C34.18 81.25 32.86 81.25 31.5 81.25 C29.0034061 73.85230577 26.53026155 66.4481344 24.1875 59 C23.86136719 57.96359375 23.53523438 56.9271875 23.19921875 55.859375 C22.5 53.25 22.5 53.25 22.5 50.25 C24.16666667 48.58333333 25.83333333 46.91666667 27.5 45.25 C31.40175984 39.73371885 31.35759196 33.75136379 30.5 27.25 C28.66249646 21.2719885 26.40724749 17.05295209 20.70483398 14.03125 C16.14663878 12.41612159 11.35061522 12.56538705 6.5625 12.5 C5.49708984 12.47035156 4.43167969 12.44070312 3.33398438 12.41015625 C0.72258213 12.33989431 -1.88795004 12.28698252 -4.5 12.25 C-4.55395478 10.62536158 -4.59277195 9.00021459 -4.625 7.375 C-4.64820313 6.47007812 -4.67140625 5.56515625 -4.6953125 4.6328125 C-4.41286704 1.18697783 -3.40798164 0.34079816 0 0 Z " fill="#06F0F1" transform="translate(249.5,206.75)"/>
<path d="M0 0 C0.06958568 7.99740886 0.12285447 15.99469069 0.15543652 23.99232769 C0.17107623 27.70617574 0.19228309 31.41981628 0.22631836 35.13354492 C0.25897295 38.71916041 0.27686576 42.30457662 0.28463173 45.89032936 C0.29016435 47.25665231 0.30096836 48.62296465 0.31719017 49.9892025 C0.33904275 51.90634857 0.34022607 53.82369622 0.34057617 55.7409668 C0.34723801 56.83128708 0.35389984 57.92160736 0.36076355 59.04496765 C-0.053029 62.43436318 -0.90145566 64.31933077 -3 67 C-6.13671875 67.48828125 -6.13671875 67.48828125 -9.6875 67.3125 C-10.86699219 67.26738281 -12.04648437 67.22226562 -13.26171875 67.17578125 C-14.16535156 67.11777344 -15.06898438 67.05976563 -16 67 C-16.33 68.65 -16.66 70.3 -17 72 C-18.32 72 -19.64 72 -21 72 C-20.67 73.98 -20.34 75.96 -20 78 C-21.32 77.67 -22.64 77.34 -24 77 C-23.67 75.02 -23.34 73.04 -23 71 C-20.525 70.505 -20.525 70.505 -18 70 C-18 68.35 -18 66.7 -18 65 C-13.05 64.67 -8.1 64.34 -3 64 C-5.53658349 54.64374943 -8.08505343 45.33897837 -11.30078125 36.1875 C-12 34 -12 34 -12 32 C-11.236875 31.484375 -10.47375 30.96875 -9.6875 30.4375 C-5.43290663 26.57868276 -4.25249887 22.05294092 -3.78515625 16.40234375 C-3.72320283 11.83844151 -4.05719531 7.47832227 -5 3 C-1.125 0 -1.125 0 0 0 Z " fill="#45C1EE" transform="translate(288,224)"/>
<path d="M0 0 C2.31 0.33 4.62 0.66 7 1 C7 24.1 7 47.2 7 71 C5.68 71 4.36 71 3 71 C2.67 62.75 2.34 54.5 2 46 C1.01 49.63 0.02 53.26 -1 57 C-1.66 57.66 -2.32 58.32 -3 59 C-5.84614582 53.30770836 -3.30205898 45.65764082 -2.125 39.75 C-0.73032954 32.35656623 0.54527127 24.97223065 1.4375 17.5 C1.59484619 16.34516113 1.59484619 16.34516113 1.75537109 15.16699219 C2.3074137 10.12582422 1.42443299 7.37298258 -1 3 C-0.67 2.01 -0.34 1.02 0 0 Z " fill="#FF0000" transform="translate(338,218)"/>
<path d="M0 0 C9.11744172 1.56732362 17.58805031 5.41616118 25.35546875 10.34765625 C27.85102126 11.90691579 30.39426652 13.34347587 32.97094727 14.76342773 C48.97277633 23.63722919 75.70847018 39.50032843 83 57 C78.16527445 56.83549138 76.08745374 54.43889855 72.93823242 51.13671875 C72.00974487 50.14091797 72.00974487 50.14091797 71.0625 49.125 C64.18368096 41.99756939 56.96957287 35.8631206 49 30 C48.11699219 29.34515625 47.23398437 28.6903125 46.32421875 28.015625 C31.91187379 17.62586436 15.52675646 9.46087972 -1 3 C-0.67 2.01 -0.34 1.02 0 0 Z " fill="#E9E9E9" transform="translate(250,161)"/>
<path d="M0 0 C0.99 0.33 1.98 0.66 3 1 C4.33363703 1.14403348 5.67218046 1.24590423 7.01171875 1.31640625 C8.14770508 1.37924805 8.14770508 1.37924805 9.30664062 1.44335938 C10.48516602 1.50233398 10.48516602 1.50233398 11.6875 1.5625 C12.88342773 1.62727539 12.88342773 1.62727539 14.10351562 1.69335938 C16.06881447 1.79927368 18.03438496 1.90012551 20 2 C21.57370852 5.65612452 22.58128279 9.19387594 23.40234375 13.0859375 C23.77576904 14.84176147 23.77576904 14.84176147 24.15673828 16.63305664 C24.54321533 18.4853186 24.54321533 18.4853186 24.9375 20.375 C25.20546387 21.6427124 25.47342773 22.9104248 25.74951172 24.21655273 C27.30521894 31.60023687 28.82755132 38.98930406 30.27734375 46.39453125 C30.85409137 49.27203425 31.45229402 52.14210069 32.06640625 55.01171875 C32.25187012 55.87982178 32.43733398 56.7479248 32.62841797 57.64233398 C32.99330429 59.3442339 33.36070297 61.04559767 33.73095703 62.74633789 C34.40301186 65.88357918 35 68.78149907 35 72 C33.68 72 32.36 72 31 72 C27.48620768 59.68486837 24.89201736 47.23809281 22.375 34.6875 C21.9769812 32.72061835 21.57854594 30.75382093 21.1796875 28.78710938 C19.43918899 20.19419375 17.71841446 11.59735531 16 3 C11.05 3 6.1 3 1 3 C0.67 2.01 0.34 1.02 0 0 Z " fill="#06F0EF" transform="translate(200,216)"/>
<path d="M0 0 C1.98 0 3.96 0 6 0 C6.24849534 2.93703525 6.47448285 5.87286332 6.6875 8.8125 C6.76033203 9.64587891 6.83316406 10.47925781 6.90820312 11.33789062 C6.96298828 12.14033203 7.01777344 12.94277344 7.07421875 13.76953125 C7.16062622 14.87711792 7.16062622 14.87711792 7.2487793 16.00708008 C7 18 7 18 4 21 C7.96 21 11.92 21 16 21 C16.33 22.65 16.66 24.3 17 26 C16.01 26.33 15.02 26.66 14 27 C14.02320313 27.84304688 14.04640625 28.68609375 14.0703125 29.5546875 C14.09738281 31.19824219 14.09738281 31.19824219 14.125 32.875 C14.14820313 33.96554687 14.17140625 35.05609375 14.1953125 36.1796875 C14 39 14 39 12 41 C6.43181818 40.43181818 6.43181818 40.43181818 5 39 C4.92755947 36.98035801 4.91622812 34.95832876 4.9375 32.9375 C4.94652344 31.83277344 4.95554688 30.72804688 4.96484375 29.58984375 C4.97644531 28.73519531 4.98804688 27.88054687 5 27 C4.01 26.67 3.02 26.34 2 26 C1.875 20.25 1.875 20.25 3 18 C1.35 18 -0.3 18 -2 18 C-2 18.66 -2 19.32 -2 20 C-4.88437779 18.70700306 -6.87219421 17.34058637 -9 15 C-8.67 14.34 -8.34 13.68 -8 13 C-7.34 13.66 -6.68 14.32 -6 15 C-3.56747339 15.46162427 -3.56747339 15.46162427 -0.875 15.625 C0.03507813 15.69976562 0.94515625 15.77453125 1.8828125 15.8515625 C2.58148438 15.90054687 3.28015625 15.94953125 4 16 C3.09241825 12.69380934 2.20003101 9.47785185 0.875 6.3125 C0 4 0 4 0 0 Z " fill="#A77778" transform="translate(240,289)"/>
<path d="M0 0 C-1.43229167 0.84635417 -2.86458333 1.69270833 -4.296875 2.5390625 C-7.51730829 5.30154427 -9.68231913 8.0603538 -10.37149048 12.26818848 C-10.51174662 14.98732346 -10.52817875 17.67974987 -10.49609375 20.40234375 C-10.49754898 21.39827042 -10.49900421 22.39419708 -10.50050354 23.42030334 C-10.498848 25.52071058 -10.48732551 27.62113038 -10.46655273 29.72143555 C-10.43762608 32.92354295 -10.44594638 36.12399021 -10.45898438 39.32617188 C-10.4527454 41.37240383 -10.44435323 43.41863058 -10.43359375 45.46484375 C-10.43652939 46.41608627 -10.43946503 47.3673288 -10.44248962 48.34739685 C-10.36307579 53.98880531 -9.71903513 58.0216739 -7 63 C-2.41469119 67.24979841 0.46313217 68.13962672 6.625 68.5625 C8.40777344 68.68818359 8.40777344 68.68818359 10.2265625 68.81640625 C11.14179688 68.87699219 12.05703125 68.93757813 13 69 C13 69.33 13 69.66 13 70 C-2.79824842 70.79878784 -2.79824842 70.79878784 -9 66 C-13.98337965 61.08945084 -15.69033788 56.88181915 -15.78237915 49.9291687 C-15.76395966 48.9393399 -15.74554016 47.94951111 -15.7265625 46.9296875 C-15.72755951 45.88982697 -15.72855652 44.84996643 -15.72958374 43.77859497 C-15.72492417 41.591739 -15.70559637 39.40487012 -15.67236328 37.21826172 C-15.62503688 33.87760354 -15.63127172 30.54012874 -15.64453125 27.19921875 C-15.63338021 25.06768938 -15.61916202 22.93617338 -15.6015625 20.8046875 C-15.60338531 19.81081024 -15.60520813 18.81693298 -15.60708618 17.79293823 C-15.48954177 12.02966071 -14.90785326 8.53777588 -11 4 C-4.81854839 -1.44556452 -4.81854839 -1.44556452 0 0 Z " fill="#EC0B0B" transform="translate(438,220)"/>
<path d="M0 0 C2.28137676 3.42206515 3.06925123 6.68874598 4 10.625 C4.17370117 11.33978516 4.34740234 12.05457031 4.52636719 12.79101562 C5.7479154 17.8468043 6.91017025 22.91412783 8 28 C8.99 28 9.98 28 11 28 C11 29.65 11 31.3 11 33 C8.525 33.495 8.525 33.495 6 34 C5.67 35.98 5.34 37.96 5 40 C5.66 40 6.32 40 7 40 C7 40.99 7 41.98 7 43 C6.34 43 5.68 43 5 43 C5 43.66 5 44.32 5 45 C1.7 45 -1.6 45 -5 45 C-5.36983155 38.46630934 -5.36983155 38.46630934 -3.5625 36.1875 C-2.7890625 35.5996875 -2.7890625 35.5996875 -2 35 C-0.50016915 32.0003383 -0.76097945 28.88053039 -0.68359375 25.5859375 C-0.66281265 24.85629791 -0.64203156 24.12665833 -0.62062073 23.37490845 C-0.55518083 21.04170237 -0.49626632 18.70838279 -0.4375 16.375 C-0.39430947 14.79425905 -0.35069501 13.21352961 -0.30664062 11.6328125 C-0.19950519 7.75532496 -0.09822218 3.87772315 0 0 Z " fill="#E3595E" transform="translate(259,261)"/>
<path d="M0 0 C1.32 0 2.64 0 4 0 C2.50663837 13.36942926 -0.61610284 26.39364496 -3.5625 39.5 C-4.32493448 42.91034558 -5.0858537 46.32102107 -5.84519958 49.73205566 C-6.3150101 51.84051237 -6.78680409 53.94852841 -7.26087952 56.05603027 C-8.29741817 60.6901804 -9.29251696 65.30131964 -10 70 C-11.32 70 -12.64 70 -14 70 C-13.53588653 61.76358159 -12.29494191 54.06075771 -10.3125 46.0625 C-7.61864798 34.83329481 -5.20732823 23.57300459 -2.91723633 12.25610352 C-2.68029053 11.09006592 -2.44334473 9.92402832 -2.19921875 8.72265625 C-1.99127686 7.68890869 -1.78333496 6.65516113 -1.5690918 5.59008789 C-1 3 -1 3 0 0 Z " fill="#ED0303" transform="translate(196,219)"/>
<path d="M0 0 C4.62 0 9.24 0 14 0 C14 23.1 14 46.2 14 70 C12.68 70 11.36 70 10 70 C10 47.23 10 24.46 10 1 C6.7 1 3.4 1 0 1 C0 0.67 0 0.34 0 0 Z " fill="#07FDFD" transform="translate(405,218)"/>
<path d="M0 0 C4.62 0 9.24 0 14 0 C14 23.1 14 46.2 14 70 C12.68 70 11.36 70 10 70 C10 47.23 10 24.46 10 1 C6.7 1 3.4 1 0 1 C0 0.67 0 0.34 0 0 Z " fill="#02EDED" transform="translate(349,218)"/>
<path d="M0 0 C4.62 0 9.24 0 14 0 C14 23.1 14 46.2 14 70 C12.68 70 11.36 70 10 70 C10 47.23 10 24.46 10 1 C6.7 1 3.4 1 0 1 C0 0.67 0 0.34 0 0 Z " fill="#00FDFD" transform="translate(67,218)"/>
<path d="M0 0 C0.66 0.33 1.32 0.66 2 1 C2.39251232 8.9665463 1.81199001 16.50620613 0.625 24.375 C0.49891357 25.21836914 0.37282715 26.06173828 0.24291992 26.93066406 C-0.52145147 31.75054304 -1.5550529 36.33847502 -3 41 C-3.66 41 -4.32 41 -5 41 C-6.04196389 38.65331612 -7.05816553 36.30024695 -8.0625 33.9375 C-8.35705078 33.28072266 -8.65160156 32.62394531 -8.95507812 31.94726562 C-10.93245735 27.22481877 -11.4026101 24.08446162 -10 19 C-8.48727331 15.58607123 -6.74341946 12.32905308 -4.9375 9.0625 C-4.46505859 8.18787109 -3.99261719 7.31324219 -3.50585938 6.41210938 C-2.34667254 4.26937008 -1.17796683 2.13245471 0 0 Z " fill="#464A4A" transform="translate(335,225)"/>
<path d="M0 0 C1.32 0 2.64 0 4 0 C4 23.1 4 46.2 4 70 C2.68 70 1.36 70 0 70 C0 46.9 0 23.8 0 0 Z " fill="#FF0A0A" transform="translate(368,219)"/>
<path d="M0 0 C1.32 0 2.64 0 4 0 C4 23.1 4 46.2 4 70 C2.68 70 1.36 70 0 70 C0 46.9 0 23.8 0 0 Z " fill="#F90000" transform="translate(288,219)"/>
<path d="M0 0 C1.32 0 2.64 0 4 0 C4 23.1 4 46.2 4 70 C2.68 70 1.36 70 0 70 C0 46.9 0 23.8 0 0 Z " fill="#EB0202" transform="translate(237,219)"/>
<path d="M0 0 C1.32 0 2.64 0 4 0 C4 23.1 4 46.2 4 70 C2.68 70 1.36 70 0 70 C0 46.9 0 23.8 0 0 Z " fill="#E60202" transform="translate(134,219)"/>
<path d="M0 0 C1.32 0 2.64 0 4 0 C4 23.1 4 46.2 4 70 C2.68 70 1.36 70 0 70 C0 46.9 0 23.8 0 0 Z " fill="#F90000" transform="translate(86,219)"/>
<path d="M0 0 C1.32 0 2.64 0 4 0 C4 23.1 4 46.2 4 70 C2.68 70 1.36 70 0 70 C0 46.9 0 23.8 0 0 Z " fill="#FF0A0A" transform="translate(30,219)"/>
<path d="M0 0 C0.99 0.33 1.98 0.66 3 1 C2.67 1.33 2.34 1.66 2 2 C1.84111908 4.28988781 1.74861927 6.58443441 1.68359375 8.87890625 C1.66281265 9.5655687 1.64203156 10.25223114 1.62062073 10.95970154 C1.55505857 13.16052935 1.49620985 15.36147975 1.4375 17.5625 C1.39432108 19.05144514 1.350707 20.54037773 1.30664062 22.02929688 C1.1993707 25.68606553 1.09812228 29.34297318 1 33 C1.99 33 2.98 33 4 33 C3.98839844 33.83144531 3.97679687 34.66289062 3.96484375 35.51953125 C3.95582031 36.60621094 3.94679688 37.69289063 3.9375 38.8125 C3.92589844 39.89144531 3.91429687 40.97039062 3.90234375 42.08203125 C3.86375234 45.06512169 3.86375234 45.06512169 5 48 C2.6875 48.25 2.6875 48.25 0 48 C-2.02324785 46.23018424 -2.89270836 44.74321639 -3.27825928 42.07247925 C-3.39820847 39.6253092 -3.41560306 37.19617122 -3.3984375 34.74609375 C-3.40130768 33.84883072 -3.40417786 32.95156769 -3.40713501 32.02711487 C-3.4091737 30.1333859 -3.40365746 28.23963578 -3.39111328 26.34594727 C-3.37503793 23.44434693 -3.39097809 20.54413554 -3.41015625 17.64257812 C-3.40817415 15.80208026 -3.40433117 13.96158325 -3.3984375 12.12109375 C-3.40451019 11.25230087 -3.41058289 10.383508 -3.4168396 9.48838806 C-3.40265488 8.27681786 -3.40265488 8.27681786 -3.38818359 7.04077148 C-3.38579681 6.33113754 -3.38341003 5.6215036 -3.38095093 4.8903656 C-2.89417646 2.4748794 -1.85037522 1.56413472 0 0 Z " fill="#0AF6F6" transform="translate(444,230)"/>
<path d="M0 0 C-0.33 0.66 -0.66 1.32 -1 2 C-3.71921068 2.62178887 -6.3751714 3.12795351 -9.125 3.5625 C-9.87265625 3.68818359 -10.6203125 3.81386719 -11.390625 3.94335938 C-13.59200169 4.3096163 -15.7939182 4.66317077 -18 5 C-19.0945752 5.17563477 -20.18915039 5.35126953 -21.31689453 5.53222656 C-27.06563946 6.26234689 -32.81077928 6.18596191 -38.59570312 6.18530273 C-40.73067441 6.18748029 -42.86512038 6.20565346 -45 6.22460938 C-52.84861707 6.25575468 -60.32299941 5.80280815 -68 4 C-67.67 3.34 -67.34 2.68 -67 2 C-65.42424194 2.02356567 -65.42424194 2.02356567 -63.81665039 2.04760742 C-44.00335117 2.31804174 -24.62590213 2.43882054 -5.01660156 -0.83813477 C-3 -1 -3 -1 0 0 Z " fill="#EFEFEF" transform="translate(291,334)"/>
<path d="M0 0 C0.33 0.66 0.66 1.32 1 2 C2.216875 2.12375 3.43375 2.2475 4.6875 2.375 C9.10858152 2.87237167 11.63247956 3.93181471 15 7 C19.70117976 13.67344252 21.06331682 19.952625 20 28 C18.84827385 34.31234524 15.71436243 37.71313706 10.9375 41.84765625 C10.298125 42.22792969 9.65875 42.60820312 9 43 C8.01 42.67 7.02 42.34 6 42 C6.928125 41.34 7.85625 40.68 8.8125 40 C13.29456708 36.20666663 14.63921831 32.05550916 15.31640625 26.3203125 C15.58597621 20.04194125 14.79812053 15.10661937 11 10 C6.52652094 5.42381351 3.23065122 3.89072224 -3.1015625 3.68359375 C-4.31328125 3.64169922 -5.525 3.59980469 -6.7734375 3.55664062 C-8.04445312 3.51732422 -9.31546875 3.47800781 -10.625 3.4375 C-12.543125 3.37272461 -12.543125 3.37272461 -14.5 3.30664062 C-17.66655348 3.20030114 -20.83318753 3.09827167 -24 3 C-24 2.67 -24 2.34 -24 2 C-23.30849854 1.97494385 -22.61699707 1.9498877 -21.90454102 1.92407227 C-18.79032134 1.80847839 -15.67643211 1.68558758 -12.5625 1.5625 C-10.92958008 1.50352539 -10.92958008 1.50352539 -9.26367188 1.44335938 C-8.22919922 1.40146484 -7.19472656 1.35957031 -6.12890625 1.31640625 C-5.17056885 1.27974854 -4.21223145 1.24309082 -3.22485352 1.20532227 C-1.02861075 1.24165576 -1.02861075 1.24165576 0 0 Z " fill="#0AE7E7" transform="translate(162,216)"/>
<path d="M0 0 C0.45761719 0.46792969 0.91523438 0.93585938 1.38671875 1.41796875 C3.2865926 3.28104117 4.7871208 3.83118478 7.3125 4.625 C8.1065625 4.87765625 8.900625 5.1303125 9.71875 5.390625 C12.14574687 6.09911985 12.14574687 6.09911985 15.3125 6.375 C18.92903405 7.21605443 19.98908449 8.98362673 22 12 C19.69 12.66 17.38 13.32 15 14 C15 13.34 15 12.68 15 12 C15.66 12 16.32 12 17 12 C16.67 11.01 16.34 10.02 16 9 C13.98491642 8.26676204 13.98491642 8.26676204 12 8 C12 9.65 12 11.3 12 13 C11.01 13.33 10.02 13.66 9 14 C8.67 12.02 8.34 10.04 8 8 C6.68 7.67 5.36 7.34 4 7 C4 8.98 4 10.96 4 13 C3.01 13.33 2.02 13.66 1 14 C1.01160156 13.36191406 1.02320313 12.72382813 1.03515625 12.06640625 C1.04417969 11.24011719 1.05320313 10.41382813 1.0625 9.5625 C1.07410156 8.73878906 1.08570313 7.91507813 1.09765625 7.06640625 C1.23267348 5.00836062 1.23267348 5.00836062 0 4 C-2.5 3.83333333 -2.5 3.83333333 -5 4 C-6.23267348 5.00836062 -6.23267348 5.00836062 -6.09765625 7.06640625 C-6.08605469 7.89011719 -6.07445312 8.71382812 -6.0625 9.5625 C-6.05347656 10.38878906 -6.04445312 11.21507812 -6.03515625 12.06640625 C-6.02355469 12.70449219 -6.01195312 13.34257812 -6 14 C-9.09720845 14.87840996 -10.90645403 14.99435406 -14 14 C-14.33 11.36 -14.66 8.72 -15 6 C-12 4 -12 4 -8 4 C-8 3.34 -8 2.68 -8 2 C-4.76746204 -0.15502531 -3.74849077 -0.46856135 0 0 Z " fill="#748F9F" transform="translate(252,204)"/>
<path d="M0 0 C4.95 0 9.9 0 15 0 C16.31656753 3.72777549 17.62839319 7.45710504 18.9375 11.1875 C19.49727539 12.77014648 19.49727539 12.77014648 20.06835938 14.38476562 C20.60493164 15.91713867 20.60493164 15.91713867 21.15234375 17.48046875 C21.48226318 18.41785889 21.81218262 19.35524902 22.15209961 20.32104492 C23.71434474 25.25698382 24.1147655 29.63821581 24.0625 34.8125 C24.05347656 35.97394531 24.04445313 37.13539063 24.03515625 38.33203125 C24.02355469 39.21246094 24.01195313 40.09289062 24 41 C21.79075115 37.68612672 20.64050449 34.37094064 19.3984375 30.62890625 C19.1571109 29.9101683 18.9157843 29.19143036 18.66714478 28.45091248 C18.15896718 26.93279445 17.65310984 25.41389804 17.14941406 23.89428711 C16.37816886 21.57204154 15.59581168 19.25374599 14.8125 16.93554688 C14.31963358 15.45855972 13.827424 13.98135317 13.3359375 12.50390625 C13.10160004 11.81212784 12.86726257 11.12034943 12.62582397 10.40760803 C11.52311319 7.05108566 11 4.58051582 11 1 C7.37 1 3.74 1 0 1 C0 0.67 0 0.34 0 0 Z " fill="#09F1F1" transform="translate(39,218)"/>
<path d="M0 0 C3.1835024 11.54019619 2.2098596 23.20386885 1 35 C0.34 35 -0.32 35 -1 35 C-1.84504433 31.14830593 -2.67391635 27.29330126 -3.5 23.4375 C-3.73847656 22.35146484 -3.97695312 21.26542969 -4.22265625 20.14648438 C-7.18847018 6.20715891 -7.18847018 6.20715891 -4.6875 1.5625 C-3 0 -3 0 0 0 Z " fill="#9C925A" transform="translate(235,250)"/>
<path d="M0 0 C5.28 0 10.56 0 16 0 C17.52730951 4.20010116 19.02170759 8.40764927 20.5 12.625 C20.92925781 13.79546875 21.35851562 14.9659375 21.80078125 16.171875 C24.79271356 24.81523501 25.56337337 31.89386926 25 41 C22.79075115 37.68612672 21.64050449 34.37094064 20.3984375 30.62890625 C20.1571109 29.9101683 19.9157843 29.19143036 19.66714478 28.45091248 C19.15896718 26.93279445 18.65310984 25.41389804 18.14941406 23.89428711 C17.37816886 21.57204154 16.59581168 19.25374599 15.8125 16.93554688 C15.31963358 15.45855972 14.827424 13.98135317 14.3359375 12.50390625 C14.10160004 11.81212784 13.86726257 11.12034943 13.62582397 10.40760803 C12.52311319 7.05108566 12 4.58051582 12 1 C8.04 1 4.08 1 0 1 C0 0.67 0 0.34 0 0 Z " fill="#0AF0F0" transform="translate(376,218)"/>
<path d="M0 0 C3.14581423 -0.02888514 6.29159469 -0.04675923 9.4375 -0.0625 C10.33533203 -0.07087891 11.23316406 -0.07925781 12.15820312 -0.08789062 C13.01220703 -0.09111328 13.86621094 -0.09433594 14.74609375 -0.09765625 C15.93223267 -0.10551147 15.93223267 -0.10551147 17.14233398 -0.11352539 C19 0 19 0 20 1 C20.31038255 4.67878237 20.27860306 8.37225304 20.3125 12.0625 C20.34150391 13.08794922 20.37050781 14.11339844 20.40039062 15.16992188 C20.45402825 21.61881444 19.86692115 26.68667933 16 32 C14.09374608 33.90683946 12.19188885 35.40589902 10 37 C9.34 36.67 8.68 36.34 8 36 C9.23697917 34.60026042 10.47395833 33.20052083 11.7109375 31.80078125 C14.52160897 27.87435838 15.24856442 24.24651518 15.1953125 19.48046875 C15.18886719 18.45888672 15.18242187 17.43730469 15.17578125 16.38476562 C15.15902344 15.32966797 15.14226562 14.27457031 15.125 13.1875 C15.11597656 12.11306641 15.10695313 11.03863281 15.09765625 9.93164062 C15.07415424 7.28766448 15.03828517 4.6438034 15 2 C10.05 1.67 5.1 1.34 0 1 C0 0.67 0 0.34 0 0 Z " fill="#12FAFA" transform="translate(451,250)"/>
<path d="M0 0 C2.25831887 1.76737998 2.95750232 2.8282524 3.65551758 5.64916992 C4.04877996 9.47448971 3.66728869 12.68927438 3.07421875 16.48828125 C2.96656693 17.19091599 2.8589151 17.89355072 2.7480011 18.61747742 C2.51940136 20.09812495 2.2863446 21.57809052 2.04907227 23.05737305 C1.69046166 25.29402814 1.34497061 27.53239034 1.00195312 29.77148438 C-0.10380103 36.90418001 -1.31000668 43.97819675 -3 51 C-5.42397026 47.3640446 -6.28282378 45.58833833 -5.51171875 41.2578125 C-5.23972656 40.22398437 -4.96773438 39.19015625 -4.6875 38.125 C-2.08398314 27.41236413 -0.73612127 17.07371993 -0.9855957 6.06518555 C-1.02155574 4.37716652 -1.01486586 2.68833656 -1 1 C-0.67 0.67 -0.34 0.34 0 0 Z " fill="#F3F3F3" transform="translate(337,222)"/>
<path d="M0 0 C0 0.66 0 1.32 0 2 C-0.66 2 -1.32 2 -2 2 C-1.72736328 2.79172607 -1.45472656 3.58345215 -1.17382812 4.39916992 C-0.16137802 7.35106772 0.84418851 10.30519694 1.84521484 13.26098633 C2.49181419 15.16341566 3.14624942 17.06317587 3.80078125 18.96289062 C4.20683594 20.16494141 4.61289062 21.36699219 5.03125 22.60546875 C5.40830078 23.71043701 5.78535156 24.81540527 6.17382812 25.95385742 C6.94801163 28.80831592 7.17197068 31.06455605 7 34 C5.68 34 4.36 34 3 34 C0.5034061 26.60230577 -1.96973845 19.1981344 -4.3125 11.75 C-4.63863281 10.71359375 -4.96476562 9.6771875 -5.30078125 8.609375 C-6 6 -6 6 -6 3 C-2.66666667 0 -2.66666667 0 0 0 Z " fill="#05F5F5" transform="translate(278,254)"/>
<path d="M0 0 C3.31577468 3.31577468 3.93094747 6.92738406 4.22705078 11.52685547 C4.21134033 13.42781982 4.21134033 13.42781982 4.1953125 15.3671875 C4.1924826 16.04677521 4.18965271 16.72636292 4.18673706 17.42654419 C4.17562964 19.57621608 4.15054391 21.72545614 4.125 23.875 C4.11495795 25.34113977 4.10583425 26.80728614 4.09765625 28.2734375 C4.07572159 31.84909631 4.04125814 35.42450594 4 39 C2.68 39 1.36 39 0 39 C0 26.13 0 13.26 0 0 Z " fill="#00FCFC" transform="translate(386,249)"/>
<path d="M0 0 C3.31577468 3.31577468 3.93094747 6.92738406 4.22705078 11.52685547 C4.21134033 13.42781982 4.21134033 13.42781982 4.1953125 15.3671875 C4.1924826 16.04677521 4.18965271 16.72636292 4.18673706 17.42654419 C4.17562964 19.57621608 4.15054391 21.72545614 4.125 23.875 C4.11495795 25.34113977 4.10583425 26.80728614 4.09765625 28.2734375 C4.07572159 31.84909631 4.04125814 35.42450594 4 39 C2.68 39 1.36 39 0 39 C0 26.13 0 13.26 0 0 Z " fill="#00FCFC" transform="translate(48,249)"/>
<path d="M0 0 C1.32 0 2.64 0 4 0 C4 5.28 4 10.56 4 16 C11.59 16 19.18 16 27 16 C27 19.96 27 23.92 27 28 C25.68 28 24.36 28 23 28 C23 24.37 23 20.74 23 17 C15.41 17 7.82 17 0 17 C0 11.39 0 5.78 0 0 Z " fill="#00F5F5" transform="translate(104,260)"/>
<path d="M0 0 C0.33 0 0.66 0 1 0 C1 12.87 1 25.74 1 39 C-1 37 -1 37 -1.125 33.375 C-1.08375 32.26125 -1.0425 31.1475 -1 30 C-2.99863756 30.57944932 -2.99863756 30.57944932 -5 32 C-6.29231642 35.04199472 -6.29231642 35.04199472 -7 38 C-7.33 38 -7.66 38 -8 38 C-8.99 32.06 -9.98 26.12 -11 20 C-7.37 21.32 -3.74 22.64 0 24 C0 16.08 0 8.16 0 0 Z " fill="#A27A79" transform="translate(236,220)"/>
<path d="M0 0 C2.31 0 4.62 0 7 0 C7 6.27 7 12.54 7 19 C4.36 19 1.72 19 -1 19 C-0.67 18.34 -0.34 17.68 0 17 C0.07194869 14.11629667 0.09291708 11.25760336 0.0625 8.375 C0.05798828 7.57320313 0.05347656 6.77140625 0.04882812 5.9453125 C0.03703168 3.96350994 0.01909605 1.98174567 0 0 Z " fill="#FDFDFD" transform="translate(246,289)"/>
<path d="M0 0 C0.33 0 0.66 0 1 0 C1.86786622 31.67044104 1.86786622 31.67044104 -3 44 C-3.66 44.66 -4.32 45.32 -5 46 C-7.8668469 40.26630621 -5.29409 32.45576096 -4.125 26.5 C-2.45330878 17.68897847 -1.05430719 8.9061213 0 0 Z " fill="#575757" transform="translate(340,231)"/>
<path d="M0 0 C0.66 0.33 1.32 0.66 2 1 C1.67 8.59 1.34 16.18 1 24 C1.99 24.33 2.98 24.66 4 25 C1.94766315 27.2477975 0.99332739 28.0022242 -2 29 C-0.68 29.66 0.64 30.32 2 31 C-1.62326739 32.2077558 -2.64146369 31.54311128 -6 30 C-5.505 28.515 -5.505 28.515 -5 27 C-4.34 27 -3.68 27 -3 27 C-3.01571045 26.32420898 -3.0314209 25.64841797 -3.04760742 24.95214844 C-3.11003867 21.88485103 -3.14901647 18.81768741 -3.1875 15.75 C-3.21263672 14.68652344 -3.23777344 13.62304688 -3.26367188 12.52734375 C-3.27333984 11.50253906 -3.28300781 10.47773438 -3.29296875 9.421875 C-3.3086792 8.47924805 -3.32438965 7.53662109 -3.34057617 6.56542969 C-2.94383071 3.57689826 -1.98295729 2.22310783 0 0 Z " fill="#02F7F7" transform="translate(309,262)"/>
<path d="M0 0 C5 1 5 1 6.8125 2.5625 C8.60078979 6.2332001 8.32339598 8.9252106 8 13 C7.01 14.485 7.01 14.485 6 16 C6.66 16.66 7.32 17.32 8 18 C5.36 18 2.72 18 0 18 C0 12.06 0 6.12 0 0 Z " fill="#03FCFE" transform="translate(255,231)"/>
<path d="M0 0 C1.32 0 2.64 0 4 0 C4 5.28 4 10.56 4 16 C8.62 16 13.24 16 18 16 C18 19.96 18 23.92 18 28 C16.68 28 15.36 28 14 28 C14 24.37 14 20.74 14 17 C9.38 17 4.76 17 0 17 C0 11.39 0 5.78 0 0 Z " fill="#01F4F4" transform="translate(104,231)"/>
<path d="M0 0 C13.4085576 -0.91979435 13.4085576 -0.91979435 19.34765625 3.5 C22.77823059 6.61428025 25.50609003 9.51827009 27 14 C27.06802967 15.72795352 27.08495645 17.45835365 27.0625 19.1875 C27.05347656 20.08855469 27.04445313 20.98960937 27.03515625 21.91796875 C27.02355469 22.60503906 27.01195312 23.29210937 27 24 C25.68 24 24.36 24 23 24 C22.90203125 23.27554688 22.8040625 22.55109375 22.703125 21.8046875 C21.57365166 14.50205814 20.15072528 9.76649049 14.4375 4.75 C9.7777925 2.37778527 5.14703247 1.69603998 0 1 C0 0.67 0 0.34 0 0 Z " fill="#15F7F7" transform="translate(444,217)"/>
<path d="M0 0 C3.3 0 6.6 0 10 0 C10 0.99 10 1.98 10 3 C9.34 3 8.68 3 8 3 C8 6.96 8 10.92 8 15 C5.66705225 15.04241723 3.33297433 15.04092937 1 15 C0 14 0 14 -0.09765625 10.83984375 C-0.08025391 8.90818359 -0.08025391 8.90818359 -0.0625 6.9375 C-0.05347656 5.64714844 -0.04445312 4.35679687 -0.03515625 3.02734375 C-0.02355469 2.02832031 -0.01195312 1.02929688 0 0 Z " fill="#6C6C6C" transform="translate(246,313)"/>
<path d="M0 0 C4.62 0 9.24 0 14 0 C14.33 1.32 14.66 2.64 15 4 C16.32 3.67 17.64 3.34 19 3 C17.625 5.5 17.625 5.5 16 8 C15.34 8 14.68 8 14 8 C14.03480469 8.95261719 14.06960938 9.90523437 14.10546875 10.88671875 C14.13253906 12.14097656 14.15960938 13.39523438 14.1875 14.6875 C14.22230469 15.92886719 14.25710938 17.17023438 14.29296875 18.44921875 C13.9842473 22.19092269 13.24853724 24.03782121 11 27 C10.67 27 10.34 27 10 27 C10 18.42 10 9.84 10 1 C6.7 1 3.4 1 0 1 C0 0.67 0 0.34 0 0 Z " fill="#19F0F0" transform="translate(296,218)"/>
<path d="M0 0 C1.32 0 2.64 0 4 0 C4 9.24 4 18.48 4 28 C2.68 28 1.36 28 0 28 C0 18.76 0 9.52 0 0 Z " fill="#09F6F6" transform="translate(255,260)"/>
<path d="M0 0 C0.66 0 1.32 0 2 0 C2.19504458 2.10348074 2.38078496 4.20782585 2.5625 6.3125 C2.66691406 7.48425781 2.77132812 8.65601563 2.87890625 9.86328125 C3 13 3 13 2 16 C1.93197033 17.72795352 1.91504355 19.45835365 1.9375 21.1875 C1.95103516 22.53908203 1.95103516 22.53908203 1.96484375 23.91796875 C1.97644531 24.60503906 1.98804688 25.29210937 2 26 C3.32 26.66 4.64 27.32 6 28 C2.7 28 -0.6 28 -4 28 C-2.88156738 18.62420318 -1.65562772 9.29969612 0 0 Z " fill="#09E1E2" transform="translate(207,239)"/>
<path d="M0 0 C1.32 0 2.64 0 4 0 C4 8.91 4 17.82 4 27 C2.68 27 1.36 27 0 27 C0 18.09 0 9.18 0 0 Z " fill="#11FFFF" transform="translate(152,261)"/>
<path d="M0 0 C1.32 0.33 2.64 0.66 4 1 C5.25 4.0625 5.25 4.0625 6 7 C8.35785318 6.10664203 8.35785318 6.10664203 9.125 2.9375 C9.41375 1.968125 9.7025 0.99875 10 0 C10.99 0 11.98 0 13 0 C13 4.62 13 9.24 13 14 C12.34 13.67 11.68 13.34 11 13 C10.375 10.4375 10.375 10.4375 10 8 C9.01 9.98 8.02 11.96 7 14 C4.7522025 11.94766315 3.9977758 10.99332739 3 8 C2.34 9.98 1.68 11.96 1 14 C0.67 14 0.34 14 0 14 C0 9.38 0 4.76 0 0 Z " fill="#CFCFCF" transform="translate(242,180)"/>
<path d="M0 0 C2.45195106 2.45195106 2.91106083 4.36112974 3.9453125 7.6640625 C4.29980469 8.78554688 4.65429688 9.90703125 5.01953125 11.0625 C5.38433594 12.238125 5.74914062 13.41375 6.125 14.625 C6.49753906 15.80835938 6.87007813 16.99171875 7.25390625 18.2109375 C8.17480937 21.13893715 9.08991361 24.06862376 10 27 C8.35 27 6.7 27 5 27 C1.80333396 17.90091845 -0.93384391 9.79498505 0 0 Z " fill="#EA0B0B" transform="translate(390,262)"/>
<path d="M0 0 C2.28137676 3.42206515 3.06925123 6.68874598 4 10.625 C4.26055176 11.69717773 4.26055176 11.69717773 4.52636719 12.79101562 C5.7479154 17.8468043 6.91017025 22.91412783 8 28 C6.68 28 5.36 28 4 28 C0.33736054 18.30381607 -0.50912521 10.22493123 0 0 Z " fill="#F00304" transform="translate(259,261)"/>
<path d="M0 0 C1.98 0.495 1.98 0.495 4 1 C4 24.1 4 47.2 4 71 C3.67 71 3.34 71 3 71 C2.99413376 70.23658295 2.98826752 69.47316589 2.98222351 68.68661499 C2.9242189 61.47735517 2.85209829 54.26843791 2.76428509 47.05948448 C2.71963726 43.35364347 2.68036923 39.64791097 2.65356445 35.94189453 C2.62747511 32.36255267 2.58703397 28.78362964 2.53681374 25.20454788 C2.52018285 23.84192761 2.50864507 22.47923495 2.50238609 21.11652756 C2.49270469 19.20175349 2.46291462 17.28711355 2.43237305 15.37255859 C2.41571846 13.74040909 2.41571846 13.74040909 2.39872742 12.07528687 C1.94218793 8.5541097 0.5904662 6.14514402 -1 3 C-0.67 2.01 -0.34 1.02 0 0 Z " fill="#F11B1B" transform="translate(338,218)"/>
<path d="M0 0 C4.37705845 8.09204084 4.27797614 17.01210482 4 26 C-0.33611731 25.49580031 -3.59414646 24.82199293 -7 22 C-7.8125 18.8125 -7.8125 18.8125 -8 16 C-7.44570312 16.42152344 -6.89140625 16.84304687 -6.3203125 17.27734375 C-5.59585938 17.82519531 -4.87140625 18.37304688 -4.125 18.9375 C-3.04605469 19.75541016 -3.04605469 19.75541016 -1.9453125 20.58984375 C-0.05642921 22.03964624 -0.05642921 22.03964624 2 23 C1.855625 22.42894531 1.71125 21.85789063 1.5625 21.26953125 C-0.07328991 14.12431004 -0.20618852 7.30823759 0 0 Z " fill="#6B8C9E" transform="translate(232,218)"/>
<path d="M0 0 C1.32 0 2.64 0 4 0 C4.36557309 4.26501943 3.71618544 6.66042774 1 10 C-2.13671875 10.48828125 -2.13671875 10.48828125 -5.6875 10.3125 C-6.86699219 10.26738281 -8.04648437 10.22226562 -9.26171875 10.17578125 C-10.16535156 10.11777344 -11.06898438 10.05976563 -12 10 C-12.33 11.65 -12.66 13.3 -13 15 C-14.32 15 -15.64 15 -17 15 C-16.67 16.98 -16.34 18.96 -16 21 C-17.32 20.67 -18.64 20.34 -20 20 C-19.67 18.02 -19.34 16.04 -19 14 C-17.35 13.67 -15.7 13.34 -14 13 C-14 11.35 -14 9.7 -14 8 C-9.05 7.67 -4.1 7.34 1 7 C0.67 4.69 0.34 2.38 0 0 Z " fill="#9D8E7E" transform="translate(284,281)"/>
<path d="M0 0 C1.32 0 2.64 0 4 0 C4 8.58 4 17.16 4 26 C0.09253533 20.138803 -0.27523372 14.94329974 -0.125 8.125 C-0.11597656 7.34125 -0.10695313 6.5575 -0.09765625 5.75 C-0.07428063 3.83319945 -0.03841653 1.91655809 0 0 Z " fill="#F30303" transform="translate(397,219)"/>
<path d="M0 0 C0.66 0 1.32 0 2 0 C4.97 7.59 7.94 15.18 11 23 C9.35 22.67 7.7 22.34 6 22 C4.59636712 19.55810505 3.63192048 17.48648459 2.6875 14.875 C2.42388672 14.22273438 2.16027344 13.57046875 1.88867188 12.8984375 C0.20089578 8.47953282 -0.26730562 4.78663555 0 0 Z " fill="#EE0303" transform="translate(310,266)"/>
<path d="M0 0 C1.87922366 2.81883549 2.7292963 4.91052334 3.7265625 8.10546875 C4.0359375 9.08837891 4.3453125 10.07128906 4.6640625 11.08398438 C4.98117188 12.10814453 5.29828125 13.13230469 5.625 14.1875 C5.94984375 15.22326172 6.2746875 16.25902344 6.609375 17.32617188 C7.41053337 19.88280963 8.20722579 22.44075248 9 25 C7.35 25 5.7 25 4 25 C0.91254926 16.45437743 -0.58974578 9.09191414 0 0 Z " fill="#ED0707" transform="translate(53,264)"/>
<path d="M0 0 C0.99 0.33 1.98 0.66 3 1 C3.969375 1.0825 4.93875 1.165 5.9375 1.25 C9.80005411 2.19593162 10.83902722 3.75854082 13 7 C10.69 7.66 8.38 8.32 6 9 C6 8.34 6 7.68 6 7 C6.66 7 7.32 7 8 7 C7.67 6.01 7.34 5.02 7 4 C4.98491642 3.26676204 4.98491642 3.26676204 3 3 C3 4.65 3 6.3 3 8 C2.01 8.33 1.02 8.66 0 9 C-0.33 7.02 -0.66 5.04 -1 3 C-2.32 2.67 -3.64 2.34 -5 2 C-5 3.98 -5 5.96 -5 8 C-5.99 8.33 -6.98 8.66 -8 9 C-7.88637738 7.5199159 -7.75877092 6.04089926 -7.625 4.5625 C-7.55539063 3.73878906 -7.48578125 2.91507813 -7.4140625 2.06640625 C-7.27742187 1.38449219 -7.14078125 0.70257813 -7 0 C-4.30224476 -1.34887762 -2.88231982 -0.70300484 0 0 Z " fill="#708997" transform="translate(261,209)"/>
<path d="M0 0 C2.5 0.25 2.5 0.25 4.5 2.25 C4.4765625 4.4140625 4.4765625 4.4140625 4.125 6.875 C3.95871094 8.10089844 3.95871094 8.10089844 3.7890625 9.3515625 C3.64597656 10.29128906 3.64597656 10.29128906 3.5 11.25 C1.19 11.25 -1.12 11.25 -3.5 11.25 C-3.72174933 9.79364629 -3.92698698 8.33477044 -4.125 6.875 C-4.24101562 6.06289062 -4.35703125 5.25078125 -4.4765625 4.4140625 C-4.48429688 3.69992188 -4.49203125 2.98578125 -4.5 2.25 C-2.5 0.25 -2.5 0.25 0 0 Z " fill="#46C0EB" transform="translate(249.5,206.75)"/>
<path d="M0 0 C4.62 0 9.24 0 14 0 C13.00557795 4.97211027 11.52116907 8.35372324 9.1875 12.75 C8.84396484 13.43449219 8.50042969 14.11898437 8.14648438 14.82421875 C5.50215469 19.83504986 5.50215469 19.83504986 2.8684082 20.70019531 C2.2518335 20.79913086 1.63525879 20.89806641 1 21 C2.44323469 16.26210835 4.37226733 12.01141849 6.625 7.625 C7.11226563 6.66400391 7.11226563 6.66400391 7.609375 5.68359375 C8.40257407 4.12052499 9.20077031 2.55999378 10 1 C6.7 1 3.4 1 0 1 C0 0.67 0 0.34 0 0 Z " fill="#05EAEA" transform="translate(324,218)"/>
<path d="M0 0 C1.1875 2.4375 1.1875 2.4375 2 5 C2.33 5.66 2.66 6.32 3 7 C0.525 6.01 0.525 6.01 -2 5 C-2 6.32 -2 7.64 -2 9 C-2.99 9 -3.98 9 -5 9 C-5 9.99 -5 10.98 -5 12 C-5.66 12 -6.32 12 -7 12 C-10.125 5.375 -10.125 5.375 -9 2 C-8.34 2.33 -7.68 2.66 -7 3 C-7 2.01 -7 1.02 -7 0 C-3.87822605 -1.04059132 -2.92916561 -1.32284898 0 0 Z " fill="#A2A2A2" transform="translate(280,313)"/>
<path d="M0 0 C0.33 0.99 0.66 1.98 1 3 C4.96 3 8.92 3 13 3 C12.67 4.32 12.34 5.64 12 7 C9.03 6.67 6.06 6.34 3 6 C3.33 10.62 3.66 15.24 4 20 C5.98 20 7.96 20 10 20 C9.67 20.99 9.34 21.98 9 23 C3.125 22.125 3.125 22.125 2 21 C1.92755947 18.98035801 1.91622812 16.95832876 1.9375 14.9375 C1.94652344 13.83277344 1.95554688 12.72804688 1.96484375 11.58984375 C1.97644531 10.73519531 1.98804688 9.88054687 2 9 C1.01 8.67 0.02 8.34 -1 8 C-1.125 2.25 -1.125 2.25 0 0 Z " fill="#9F9F9F" transform="translate(243,307)"/>
<path d="M0 0 C0.33 0 0.66 0 1 0 C1 9.24 1 18.48 1 28 C-2.41625138 25.72249908 -2.9648201 24.88192461 -4 21 C-3.4593551 16.11637248 -2.48818397 11.35910073 -1.4375 6.5625 C-1.03337891 4.70818359 -1.03337891 4.70818359 -0.62109375 2.81640625 C-0.31365234 1.42228516 -0.31365234 1.42228516 0 0 Z " fill="#F8FAFA" transform="translate(340,259)"/>
<path d="M0 0 C1.32 0 2.64 0 4 0 C4 8.25 4 16.5 4 25 C0.19962489 19.29943733 -0.28098528 14.26037373 -0.125 7.625 C-0.11597656 6.88894531 -0.10695312 6.15289062 -0.09765625 5.39453125 C-0.07430144 3.5962112 -0.03843836 1.79806089 0 0 Z " fill="#F40202" transform="translate(59,219)"/>
<path d="M0 0 C2.33944736 0.28730055 4.6739143 0.61936779 7 1 C7.625 4.375 7.625 4.375 8 8 C7.34 8.66 6.68 9.32 6 10 C3 9.8125 3 9.8125 0 9 C-2 6 -2 6 -1.6875 3.375 C-1 1 -1 1 0 0 Z " fill="#B8B8B8" transform="translate(299,293)"/>
<path d="M0 0 C0.99 0.495 0.99 0.495 2 1 C1.67 4.3 1.34 7.6 1 11 C1.969375 10.979375 2.93875 10.95875 3.9375 10.9375 C7 11 7 11 8 12 C8.12494616 13.62139437 8.17571624 15.24884122 8.1875 16.875 C8.20167969 17.75929688 8.21585937 18.64359375 8.23046875 19.5546875 C8 22 8 22 6 25 C4.68 24.67 3.36 24.34 2 24 C2.33 20.04 2.66 16.08 3 12 C2.01 12 1.02 12 0 12 C0 8.04 0 4.08 0 0 Z " fill="#E81919" transform="translate(445,251)"/>
<path d="M0 0 C1.32 0 2.64 0 4 0 C4.8320582 5.72040011 5.12036664 11.22240116 5 17 C3.35 17.33 1.7 17.66 0 18 C0 12.06 0 6.12 0 0 Z " fill="#28FCFC" transform="translate(152,231)"/>
<path d="M0 0 C12.21 0 24.42 0 37 0 C37 3.96 37 7.92 37 12 C35.68 12 34.36 12 33 12 C33 8.37 33 4.74 33 1 C22.11 1 11.22 1 0 1 C0 0.67 0 0.34 0 0 Z " fill="#0DEFEF" transform="translate(94,218)"/>
<path d="M0 0 C0 6.93 0 13.86 0 21 C-1.98 21.99 -1.98 21.99 -4 23 C-3.98259766 21.58847656 -3.98259766 21.58847656 -3.96484375 20.1484375 C-3.95582031 18.90320313 -3.94679688 17.65796875 -3.9375 16.375 C-3.92589844 15.14523438 -3.91429687 13.91546875 -3.90234375 12.6484375 C-3.99136076 9.32276209 -4.36313913 6.25952412 -5 3 C-1.125 0 -1.125 0 0 0 Z " fill="#DA7676" transform="translate(288,224)"/>
<path d="M0 0 C3.3 0 6.6 0 10 0 C10.33 2.97 10.66 5.94 11 9 C9 7.625 9 7.625 7 6 C7 5.34 7 4.68 7 4 C5.68 3.67 4.36 3.34 3 3 C3 4.98 3 6.96 3 9 C1.68 9.33 0.36 9.66 -1 10 C-1.125 3.375 -1.125 3.375 0 0 Z " fill="#629BAF" transform="translate(201,278)"/>
<path d="M0 0 C0.66 0 1.32 0 2 0 C2 11.22 2 22.44 2 34 C1.67 34 1.34 34 1 34 C1 26.08 1 18.16 1 10 C-0.65 9.67 -2.3 9.34 -4 9 C-4.33 8.34 -4.66 7.68 -5 7 C-1.125 1.125 -1.125 1.125 0 0 Z " fill="#659EB9" transform="translate(286,245)"/>
<path d="M0 0 C1.32 0.33 2.64 0.66 4 1 C1.03 6.94 -1.94 12.88 -5 19 C-5.33 19 -5.66 19 -6 19 C-6.10841951 17.08458862 -6.18578079 15.16740227 -6.25 13.25 C-6.29640625 12.18265625 -6.3428125 11.1153125 -6.390625 10.015625 C-5.90951715 6.30147242 -4.79442042 5.38043221 -2 3 C-1.34 2.01 -0.68 1.02 0 0 Z " fill="#E10B0B" transform="translate(316,219)"/>
<path d="M0 0 C2.93167219 0.31693753 4.58982661 0.63225834 6.8125 2.625 C8.47603223 5.95206447 8.38708602 8.32268277 8 12 C6.6875 14.9375 6.6875 14.9375 5 17 C4.01 17 3.02 17 2 17 C2.10699219 16.27554688 2.21398437 15.55109375 2.32421875 14.8046875 C3.04915695 8.95841169 3.45009602 5.10614211 0 0 Z " fill="#EC0303" transform="translate(156,231)"/>
<path d="M0 0 C2.93167219 0.31693753 4.58982661 0.63225834 6.8125 2.625 C8.47603223 5.95206447 8.38708602 8.32268277 8 12 C6.5 14.9375 6.5 14.9375 5 17 C3.68 16.67 2.36 16.34 1 16 C1.66 15.01 2.32 14.02 3 13 C3.43762929 7.5733968 3.36889008 4.49185344 0 0 Z " fill="#EF0203" transform="translate(259,231)"/>
<path d="M0 0 C6.69007182 0.52405563 13.3487487 1.10463925 20 2 C19.34 2.66 18.68 3.32 18 4 C18.99 4.66 19.98 5.32 21 6 C13.80729161 5.53752467 6.9969173 4.74922933 0 3 C0 2.01 0 1.02 0 0 Z " fill="#E2E2E2" transform="translate(206,333)"/>
<path d="M0 0 C2.25 2.25 2.25 2.25 4 5 C3.75 7.3125 3.75 7.3125 3 9 C-1 9 -1 9 -2.484375 7.6875 C-3.65625 6.125 -4.828125 4.5625 -6 3 C-3.375 0 -3.375 0 0 0 Z " fill="#A8A8A8" transform="translate(295,301)"/>
<path d="M0 0 C4 4 4 4 4.4609375 6.03515625 C4.30025791 9.82573391 4.14291019 11.78563471 2 15 C2.66 15.66 3.32 16.32 4 17 C2.68 17 1.36 17 0 17 C0 11.39 0 5.78 0 0 Z " fill="#56AACC" transform="translate(259,232)"/>
<path d="M0 0 C4.95 0 9.9 0 15 0 C15 1.65 15 3.3 15 5 C17.475 5.495 17.475 5.495 20 6 C19.67 7.32 19.34 8.64 19 10 C18.67 9.01 18.34 8.02 18 7 C15.525 6.505 15.525 6.505 13 6 C13 4.68 13 3.36 13 2 C8.71 2 4.42 2 0 2 C0 1.34 0 0.68 0 0 Z " fill="#998F83" transform="translate(214,289)"/>
<path d="M0 0 C0 3 0 3 -1.125 4.75 C-3 6 -3 6 -5.875 5.5 C-9.01633123 4.64437463 -9.01633123 4.64437463 -11.375 6.5 C-15.22238344 8.69850482 -17.70870866 7.80007127 -22 7 C-22 6.34 -22 5.68 -22 5 C-18.7 5 -15.4 5 -12 5 C-12 4.34 -12 3.68 -12 3 C-8.7 3 -5.4 3 -2 3 C-2 2.34 -2 1.68 -2 1 C-1.34 0.67 -0.68 0.34 0 0 Z " fill="#676262" transform="translate(266,303)"/>
<path d="M0 0 C3.63 1.65 7.26 3.3 11 5 C11 5.99 11 6.98 11 8 C8.03 8 5.06 8 2 8 C0 2.25 0 2.25 0 0 Z " fill="#494A4B" transform="translate(225,240)"/>
<path d="M0 0 C1.98 0.495 1.98 0.495 4 1 C5.26582219 4.86723631 5.1118765 8.73151262 5.0625 12.75 C5.05798828 13.44738281 5.05347656 14.14476562 5.04882812 14.86328125 C5.0371002 16.57555803 5.01916653 18.28779033 5 20 C3.20958752 16.76168874 2.26249761 13.58584892 1.375 10 C1.11460937 8.96875 0.85421875 7.9375 0.5859375 6.875 C0 4 0 4 0 0 Z " fill="#4BBEE8" transform="translate(231,212)"/>
<path d="M0 0 C0.33 0 0.66 0 1 0 C1.33776684 1.7491497 1.67003671 3.49936145 2 5.25 C2.185625 6.22453125 2.37125 7.1990625 2.5625 8.203125 C3 11 3 11 3 15 C1.35 14.67 -0.3 14.34 -2 14 C-2.05437607 12.41705218 -2.09296271 10.83355744 -2.125 9.25 C-2.14820313 8.36828125 -2.17140625 7.4865625 -2.1953125 6.578125 C-1.99139502 3.8864142 -1.36551721 2.30095026 0 0 Z " fill="#D81314" transform="translate(210,251)"/>
<path d="M0 0 C1.65 0.33 3.3 0.66 5 1 C5.33 2.32 5.66 3.64 6 5 C5.01 5.33 4.02 5.66 3 6 C2.67 7.65 2.34 9.3 2 11 C1.67 11 1.34 11 1 11 C1 9.35 1 7.7 1 6 C-0.32 6.99 -1.64 7.98 -3 9 C-2.44271087 5.65626525 -1.64826111 2.96687001 0 0 Z " fill="#CDCDCD" transform="translate(217,309)"/>
<path d="M0 0 C3 3 3 3 4 5 C3.9140625 7.09375 3.9140625 7.09375 3.625 9.5 C3.53476563 10.2940625 3.44453125 11.088125 3.3515625 11.90625 C3 14 3 14 2 16 C2.66 16.33 3.32 16.66 4 17 C3 18 3 18 -0.5625 18.0625 C-1.696875 18.041875 -2.83125 18.02125 -4 18 C-2.68 17.34 -1.36 16.68 0 16 C0 10.72 0 5.44 0 0 Z " fill="#626060" transform="translate(156,232)"/>
<path d="M0 0 C0.66 0 1.32 0 2 0 C2 1.32 2 2.64 2 4 C3.32 3.01 4.64 2.02 6 1 C6.66 1.33 7.32 1.66 8 2 C7.319375 2.309375 6.63875 2.61875 5.9375 2.9375 C3.75774472 4.79612983 3.75774472 4.79612983 3.95703125 7.203125 C4.22673374 9.4902021 4.56392354 11.73903835 5 14 C4.01 13.67 3.02 13.34 2 13 C2 11.02 2 9.04 2 7 C-0.51083114 8.25541557 -0.87125446 9.50063488 -2 12 C-3.15957207 8.52128379 -2.77456651 7.65780355 -1.5625 4.3125 C-1.13130859 3.10013672 -1.13130859 3.10013672 -0.69140625 1.86328125 C-0.46324219 1.24839844 -0.23507812 0.63351563 0 0 Z " fill="#DADADA" transform="translate(267,184)"/>
<path d="M0 0 C1.65 0 3.3 0 5 0 C5 3.96 5 7.92 5 12 C3.68 12 2.36 12 1 12 C0.67 8.04 0.34 4.08 0 0 Z " fill="#13FFFF" transform="translate(126,276)"/>
<path d="M0 0 C1.65 0 3.3 0 5 0 C5 3.96 5 7.92 5 12 C3.68 12 2.36 12 1 12 C0.67 8.04 0.34 4.08 0 0 Z " fill="#0FFEFE" transform="translate(117,247)"/>
<path d="M0 0 C4.62 2.31 9.24 4.62 14 7 C13.67 8.65 13.34 10.3 13 12 C10.32610077 10.0095043 7.66142477 8.00713735 5 6 C4.01 5.2575 3.02 4.515 2 3.75 C1.34 3.1725 0.68 2.595 0 2 C0 1.34 0 0.68 0 0 Z " fill="#CCBDBB" transform="translate(181,219)"/>
<path d="M0 0 C0 0.66 0 1.32 0 2 C-0.99 2 -1.98 2 -3 2 C-2.67 2.99 -2.34 3.98 -2 5 C0.50447516 6.21869929 0.50447516 6.21869929 3 7 C3.125 9.375 3.125 9.375 3 12 C2.34 12.66 1.68 13.32 1 14 C-0.32 14 -1.64 14 -3 14 C-3 13.34 -3 12.68 -3 12 C-1.68 12 -0.36 12 1 12 C1 10.68 1 9.36 1 8 C0.195625 8.020625 -0.60875 8.04125 -1.4375 8.0625 C-4 8 -4 8 -5 7 C-5.04080783 5.00041636 -5.04254356 2.99954746 -5 1 C-3 0 -3 0 0 0 Z " fill="#DFDFDF" transform="translate(228,185)"/>
<path d="M0 0 C2.64 0 5.28 0 8 0 C8 1.65 8 3.3 8 5 C6.68 5 5.36 5 4 5 C4 6.32 4 7.64 4 9 C3.34 9 2.68 9 2 9 C1.34 6.03 0.68 3.06 0 0 Z " fill="#B2BC60" transform="translate(277,258)"/>
<path d="M0 0 C2.91879341 4.37819011 2.44570491 8.51788475 1.546875 13.5234375 C1.06767908 15.69351044 0.55769585 17.84888745 0 20 C-2.60642913 16.09035631 -3.24787129 14.43522678 -2.44140625 9.765625 C-2.15136719 8.60546875 -1.86132812 7.4453125 -1.5625 6.25 C-1.27503906 5.07953125 -0.98757813 3.9090625 -0.69140625 2.703125 C-0.46324219 1.81109375 -0.23507812 0.9190625 0 0 Z " fill="#EEEEEE" transform="translate(334,253)"/>
<path d="M0 0 C2.46800047 1.15173355 4.04783565 2.04783565 6 4 C6.26991906 6.68839385 6.08737357 9.29141936 6 12 C4.68 12 3.36 12 2 12 C1.66269158 10.56342755 1.33030409 9.12569907 1 7.6875 C0.814375 6.88699219 0.62875 6.08648437 0.4375 5.26171875 C0 3 0 3 0 0 Z " fill="#E50808" transform="translate(447,230)"/>
<path d="M0 0 C0.66 0.66 1.32 1.32 2 2 C1.01 2.33 0.02 2.66 -1 3 C-1 6.3 -1 9.6 -1 13 C-1.33 13 -1.66 13 -2 13 C-2 11.02 -2 9.04 -2 7 C-3.98 7.33 -5.96 7.66 -8 8 C-8 6.35 -8 4.7 -8 3 C-6.02 3 -4.04 3 -2 3 C-2 2.34 -2 1.68 -2 1 C-1.34 0.67 -0.68 0.34 0 0 Z " fill="#7F7F7F" transform="translate(255,313)"/>
<path d="M0 0 C1.32 0 2.64 0 4 0 C4.66 3.63 5.32 7.26 6 11 C4.35 10.67 2.7 10.34 1 10 C0.67 6.7 0.34 3.4 0 0 Z " fill="#EF090A" transform="translate(211,278)"/>
<path d="M0 0 C2.35953094 2.35953094 2.49141413 3.77895617 3 7 C2.34 7 1.68 7 1 7 C1 17.56 1 28.12 1 39 C0.67 39 0.34 39 0 39 C0 26.13 0 13.26 0 0 Z " fill="#04D9D9" transform="translate(386,249)"/>
<path d="M0 0 C2.35953094 2.35953094 2.49141413 3.77895617 3 7 C2.34 7 1.68 7 1 7 C1 17.56 1 28.12 1 39 C0.67 39 0.34 39 0 39 C0 26.13 0 13.26 0 0 Z " fill="#04D9D9" transform="translate(48,249)"/>
<path d="M0 0 C2.29141944 1.79328478 2.9733933 2.90244212 3.75 5.75 C4.02545347 9.33089512 3.63473343 12.47370317 3 16 C0.58338 14.14206097 0.0319994 13.16868254 -0.546875 10.1171875 C-0.61390625 9.04726562 -0.6809375 7.97734375 -0.75 6.875 C-0.82734375 5.79992187 -0.9046875 4.72484375 -0.984375 3.6171875 C-0.98953125 2.75351563 -0.9946875 1.88984375 -1 1 C-0.67 0.67 -0.34 0.34 0 0 Z " fill="#E4E5E5" transform="translate(337,222)"/>
<path d="M0 0 C-0.99 0.495 -0.99 0.495 -2 1 C-1.34 1.66 -0.68 2.32 0 3 C-1.41538717 3.33872513 -2.83237963 3.67074624 -4.25 4 C-5.03890625 4.185625 -5.8278125 4.37125 -6.640625 4.5625 C-9 5 -9 5 -13 5 C-12.67 3.68 -12.34 2.36 -12 1 C-3.96428571 -1.27678571 -3.96428571 -1.27678571 0 0 Z " fill="#DCDCDC" transform="translate(303,331)"/>
<path d="M0 0 C1.98 0 3.96 0 6 0 C6 2.97 6 5.94 6 9 C2 7 2 7 0 4 C0 2.68 0 1.36 0 0 Z " fill="#A49C9C" transform="translate(240,289)"/>
<path d="M0 0 C0.66 0.33 1.32 0.66 2 1 C1.34 1.66 0.68 2.32 0 3 C0.33 3.66 0.66 4.32 1 5 C-3.95 7.475 -3.95 7.475 -9 10 C-9.33 8.68 -9.66 7.36 -10 6 C-8.3811004 4.96951963 -6.75467511 3.95085322 -5.125 2.9375 C-4.22007812 2.36902344 -3.31515625 1.80054688 -2.3828125 1.21484375 C-1.20332031 0.61349609 -1.20332031 0.61349609 0 0 Z " fill="#575757" transform="translate(221,169)"/>
<path d="M0 0 C1.79378179 2.69067269 2.97313958 5.08578257 4.1875 8.0625 C4.55230469 8.94035156 4.91710937 9.81820313 5.29296875 10.72265625 C6 13 6 13 5 15 C2.525 14.01 2.525 14.01 0 13 C0 8.71 0 4.42 0 0 Z " fill="#4F4142" transform="translate(310,273)"/>
<path d="M0 0 C1.60875 0.5878125 1.60875 0.5878125 3.25 1.1875 C2.92 3.4975 2.59 5.8075 2.25 8.1875 C1.92 6.8675 1.59 5.5475 1.25 4.1875 C-1.72 4.1875 -4.69 4.1875 -7.75 4.1875 C-7.75 2.1875 -7.75 2.1875 -6.1875 0.4375 C-3.75 -0.8125 -3.75 -0.8125 0 0 Z " fill="#49A5C3" transform="translate(283.75,253.8125)"/>
<path d="M0 0 C0.55429688 0.42152344 1.10859375 0.84304687 1.6796875 1.27734375 C2.40414062 1.82519531 3.12859375 2.37304688 3.875 2.9375 C4.59429687 3.48277344 5.31359375 4.02804688 6.0546875 4.58984375 C7.94357079 6.03964624 7.94357079 6.03964624 10 7 C10 7.66 10 8.32 10 9 C10.66 9.33 11.32 9.66 12 10 C7.66388269 9.49580031 4.40585354 8.82199293 1 6 C0.1875 2.8125 0.1875 2.8125 0 0 Z " fill="#D0B4B3" transform="translate(224,234)"/>
<path d="M0 0 C0.99 0 1.98 0 3 0 C3.5345256 1.24420647 4.05208611 2.49570936 4.5625 3.75 C4.85253906 4.44609375 5.14257812 5.1421875 5.44140625 5.859375 C6.09580408 8.36713731 5.89681215 9.58889849 5 12 C4.01 13.485 4.01 13.485 3 15 C2.01 10.05 1.02 5.1 0 0 Z " fill="#F0F0F0" transform="translate(164,260)"/>
<path d="M0 0 C1.98 0.495 1.98 0.495 4 1 C3.67 3.64 3.34 6.28 3 9 C1.68 9.33 0.36 9.66 -1 10 C-1.125 3.375 -1.125 3.375 0 0 Z " fill="#03F3F3" transform="translate(201,278)"/>
<path d="M0 0 C0.33 0 0.66 0 1 0 C1 6.27 1 12.54 1 19 C-1.64 19 -4.28 19 -7 19 C-6.505 17.515 -6.505 17.515 -6 16 C-4.02 16 -2.04 16 0 16 C0 10.72 0 5.44 0 0 Z " fill="#DBDBDB" transform="translate(252,289)"/>
<path d="M0 0 C0.33 0 0.66 0 1 0 C1 4.95 1 9.9 1 15 C0.34 15 -0.32 15 -1 15 C-0.67 10.05 -0.34 5.1 0 0 Z M-5 15 C-3.68 15 -2.36 15 -1 15 C-1.8125 16.9375 -1.8125 16.9375 -3 19 C-3.99 19.33 -4.98 19.66 -6 20 C-5.67 18.35 -5.34 16.7 -5 15 Z " fill="#EE4A4E" transform="translate(236,273)"/>
<path d="M0 0 C2.375 -0.125 2.375 -0.125 5 0 C5.66 0.66 6.32 1.32 7 2 C6.625 4.125 6.625 4.125 6 6 C4.35 5.67 2.7 5.34 1 5 C0.67 3.35 0.34 1.7 0 0 Z " fill="#4B4B4B" transform="translate(299,295)"/>
<path d="M0 0 C0.99 0 1.98 0 3 0 C3 2.31 3 4.62 3 7 C1.02 7 -0.96 7 -3 7 C-2.25 2.25 -2.25 2.25 0 0 Z " fill="#EEE658" transform="translate(232,250)"/>
<path d="M0 0 C1.50416548 3.00833096 0.60839737 5.34961578 0.0625 8.625 C-0.13214844 9.81351563 -0.32679688 11.00203125 -0.52734375 12.2265625 C-0.68332031 13.14179688 -0.83929688 14.05703125 -1 15 C-1.33 15 -1.66 15 -2 15 C-2.66 11.04 -3.32 7.08 -4 3 C-2.68 2.01 -1.36 1.02 0 0 Z " fill="#DA9090" transform="translate(287,224)"/>
<path d="M0 0 C2.375 2.5625 2.375 2.5625 4 5 C1.69 5.66 -0.62 6.32 -3 7 C-3 6.34 -3 5.68 -3 5 C-2.34 5 -1.68 5 -1 5 C-1.33 4.01 -1.66 3.02 -2 2 C-3.65 1.67 -5.3 1.34 -7 1 C-7.33 1.99 -7.66 2.98 -8 4 C-8 2.68 -8 1.36 -8 0 C-4.99733781 -1.5013311 -3.18669322 -0.8922741 0 0 Z " fill="#87959D" transform="translate(270,211)"/>
<path d="M0 0 C1.65 0.33 3.3 0.66 5 1 C5 2.98 5 4.96 5 7 C3.02 7 1.04 7 -1 7 C-0.67 4.69 -0.34 2.38 0 0 Z " fill="#46C0EB" transform="translate(256,211)"/>
<path d="M0 0 C0.99 0 1.98 0 3 0 C3 3.96 3 7.92 3 12 C2.34 12 1.68 12 1 12 C-0.26237731 9.47524538 -0.09856404 7.68799534 -0.0625 4.875 C-0.05347656 3.96492188 -0.04445313 3.05484375 -0.03515625 2.1171875 C-0.02355469 1.41851562 -0.01195312 0.71984375 0 0 Z " fill="#FBFDFD" transform="translate(445,263)"/>
<path d="M0 0 C1.32 0 2.64 0 4 0 C4 2.31 4 4.62 4 7 C2.35 7 0.7 7 -1 7 C-1.04254356 5.00045254 -1.04080783 2.99958364 -1 1 C-0.67 0.67 -0.34 0.34 0 0 Z " fill="#4AC0ED" transform="translate(239,211)"/>
<path d="M0 0 C0.66 0 1.32 0 2 0 C2 2.64 2 5.28 2 8 C-0.4375 7.625 -0.4375 7.625 -3 7 C-3.33 6.34 -3.66 5.68 -4 5 C-2.71937515 3.2925002 -1.38232443 1.62626404 0 0 Z " fill="#4D4848" transform="translate(286,245)"/>
<path d="M0 0 C0.66 0 1.32 0 2 0 C1.67 1.32 1.34 2.64 1 4 C1.99 4.33 2.98 4.66 4 5 C3.67 5.66 3.34 6.32 3 7 C4.32 7 5.64 7 7 7 C7 7.66 7 8.32 7 9 C5.35 9.33 3.7 9.66 2 10 C0.68 8.02 -0.64 6.04 -2 4 C-1.34 2.68 -0.68 1.36 0 0 Z " fill="#C9C9C9" transform="translate(284,307)"/>
<path d="M0 0 C0.99 0.33 1.98 0.66 3 1 C0.94766315 3.2477975 -0.00667261 4.0022242 -3 5 C-1.68 5.66 -0.36 6.32 1 7 C-2.62326739 8.2077558 -3.64146369 7.54311128 -7 6 C-6.67 5.01 -6.34 4.02 -6 3 C-4.02 2.67 -2.04 2.34 0 2 C0 1.34 0 0.68 0 0 Z " fill="#CECECE" transform="translate(310,286)"/>
<path d="M0 0 C1.975751 1.85193009 3.39112085 3.79353717 5 6 C4.34 5.67 3.68 5.34 3 5 C-0.86061033 3.71312989 -3.94150283 3.86242382 -8 4 C-8 3.34 -8 2.68 -8 2 C-4.73201451 -0.178657 -3.79094962 -0.72208564 0 0 Z " fill="#9AA8B0" transform="translate(252,204)"/>
<path d="M0 0 C4.29 0 8.58 0 13 0 C11.68 0.33 10.36 0.66 9 1 C9 1.66 9 2.32 9 3 C5.7 2.67 2.4 2.34 -1 2 C-0.67 1.34 -0.34 0.68 0 0 Z " fill="#F1F1F1" transform="translate(224,336)"/>
<path d="M0 0 C-0.33 0.66 -0.66 1.32 -1 2 C-3.75078884 2.91692961 -5.35948913 3.10886083 -8.1875 3.0625 C-10.0746875 3.0315625 -10.0746875 3.0315625 -12 3 C-10.10827237 0.58279247 -9.04144125 0.01036031 -6 -0.75 C-3 -1 -3 -1 0 0 Z " fill="#F5F5F5" transform="translate(291,334)"/>
<path d="M0 0 C0.99 0 1.98 0 3 0 C3 0.66 3 1.32 3 2 C2.01 2.33 1.02 2.66 0 3 C0.33 4.65 0.66 6.3 1 8 C2.65 8 4.3 8 6 8 C6 8.66 6 9.32 6 10 C3.6875 10.625 3.6875 10.625 1 11 C0.01 10.34 -0.98 9.68 -2 9 C-2.3125 5.5 -2.3125 5.5 -2 2 C-1.34 1.34 -0.68 0.68 0 0 Z " fill="#BEBEBE" transform="translate(263,317)"/>
<path d="M0 0 C1.65 0.33 3.3 0.66 5 1 C5 1.99 5 2.98 5 4 C4.34 4 3.68 4 3 4 C3 4.66 3 5.32 3 6 C1.68 5.67 0.36 5.34 -1 5 C-0.67 3.35 -0.34 1.7 0 0 Z " fill="#4ABBE3" transform="translate(264,212)"/>
<path d="M0 0 C0.33 0.99 0.66 1.98 1 3 C-2.32307692 6.93846154 -2.32307692 6.93846154 -5.75 7.25 C-6.4925 7.1675 -7.235 7.085 -8 7 C-5.4837822 4.39391727 -2.94865641 2.10618315 0 0 Z " fill="#F6F6F6" transform="translate(308,326)"/>
<path d="M0 0 C2.64 0 5.28 0 8 0 C7.67 1.32 7.34 2.64 7 4 C4.69 3.67 2.38 3.34 0 3 C0 2.01 0 1.02 0 0 Z " fill="#DADADA" transform="translate(248,310)"/>
<path d="M0 0 C0 3 0 3 -1 4.75 C-4.30307319 6.81442074 -7.25628566 5.67509603 -11 5 C-10.67 4.34 -10.34 3.68 -10 3 C-7.36 3 -4.72 3 -2 3 C-2 2.34 -2 1.68 -2 1 C-1.34 0.67 -0.68 0.34 0 0 Z " fill="#987F7F" transform="translate(266,303)"/>
<path d="M0 0 C0.99 0.33 1.98 0.66 3 1 C2.01 1.495 2.01 1.495 1 2 C1.33 3.32 1.66 4.64 2 6 C0.68 5.67 -0.64 5.34 -2 5 C-2 6.32 -2 7.64 -2 9 C-2.99 8.67 -3.98 8.34 -5 8 C-4.45773019 4.20411134 -2.79872437 2.52788007 0 0 Z " fill="#C6C6C6" transform="translate(194,290)"/>
<path d="M0 0 C1.90318884 2.85478326 2.4619099 4.41941308 3.125 7.6875 C3.29257812 8.49574219 3.46015625 9.30398438 3.6328125 10.13671875 C3.75398438 10.75160156 3.87515625 11.36648438 4 12 C2.68 11.67 1.36 11.34 0 11 C0 7.37 0 3.74 0 0 Z " fill="#F05057" transform="translate(259,276)"/>
<path d="M0 0 C1.32 0 2.64 0 4 0 C4 2.31 4 4.62 4 7 C3.01 7.33 2.02 7.66 1 8 C0.67 5.36 0.34 2.72 0 0 Z " fill="#EFF556" transform="translate(231,268)"/>
<path d="M0 0 C0.66 0 1.32 0 2 0 C2.33 2.31 2.66 4.62 3 7 C4.32 7.33 5.64 7.66 7 8 C5.02 8.33 3.04 8.66 1 9 C0.67 6.03 0.34 3.06 0 0 Z " fill="#829FB3" transform="translate(235,211)"/>
<path d="M0 0 C0.99 0.33 1.98 0.66 3 1 C2.67 1.66 2.34 2.32 2 3 C2.99 2.67 3.98 2.34 5 2 C5.33 3.32 5.66 4.64 6 6 C3.03 5.505 3.03 5.505 0 5 C-0.5625 3.0625 -0.5625 3.0625 -1 1 C-0.67 0.67 -0.34 0.34 0 0 Z " fill="#777777" transform="translate(248,322)"/>
<path d="M0 0 C1.32 0.33 2.64 0.66 4 1 C3.34 2.98 2.68 4.96 2 7 C1.01 7 0.02 7 -1 7 C-1.33 6.34 -1.66 5.68 -2 5 C-1.0625 2.375 -1.0625 2.375 0 0 Z " fill="#DDDDDD" transform="translate(324,289)"/>
<path d="M0 0 C0.33 0 0.66 0 1 0 C1 3.63 1 7.26 1 11 C0.34 11 -0.32 11 -1 11 C-1.22174933 9.54364629 -1.42698698 8.08477044 -1.625 6.625 C-1.74101562 5.81289063 -1.85703125 5.00078125 -1.9765625 4.1640625 C-1.98429688 3.44992187 -1.99203125 2.73578125 -2 2 C-1.34 1.34 -0.68 0.68 0 0 Z " fill="#BB6561" transform="translate(235,274)"/>
<path d="M0 0 C1.65 0 3.3 0 5 0 C4.21302675 3.41021743 3.12880057 6.68885166 2 10 C1.67 10 1.34 10 1 10 C0.67 6.7 0.34 3.4 0 0 Z " fill="#5C989E" transform="translate(227,248)"/>
<path d="M0 0 C0.99 0.33 1.98 0.66 3 1 C5.39254576 1.22560676 7.78928123 1.40848595 10.1875 1.5625 C12.09595703 1.68818359 12.09595703 1.68818359 14.04296875 1.81640625 C15.01878906 1.87699219 15.99460938 1.93757812 17 2 C16.67 3.32 16.34 4.64 16 6 C16 5.01 16 4.02 16 3 C11.05 3 6.1 3 1 3 C0.67 2.01 0.34 1.02 0 0 Z " fill="#3EBFBE" transform="translate(200,216)"/>
<path d="M0 0 C1.65 0.33 3.3 0.66 5 1 C4.01 1.33 3.02 1.66 2 2 C2 3.98 2 5.96 2 8 C1.01 8.33 0.02 8.66 -1 9 C-0.67 6.03 -0.34 3.06 0 0 Z " fill="#547D93" transform="translate(254,209)"/>
<path d="M0 0 C0.66 0.33 1.32 0.66 2 1 C1.319375 1.309375 0.63875 1.61875 -0.0625 1.9375 C-2.24225528 3.79612983 -2.24225528 3.79612983 -2.04296875 6.203125 C-1.77326626 8.4902021 -1.43607646 10.73903835 -1 13 C-1.99 12.67 -2.98 12.34 -4 12 C-4.22893297 8.96663814 -4.36475845 6.02534949 -4 3 C-2 0.9375 -2 0.9375 0 0 Z " fill="#D2D2D2" transform="translate(273,185)"/>
<path d="M0 0 C0.33 0.66 0.66 1.32 1 2 C1.66 2 2.32 2 3 2 C2.67 4.97 2.34 7.94 2 11 C-0.21151604 7.68272593 -1.33198453 5.707349 -0.5625 1.75 C-0.376875 1.1725 -0.19125 0.595 0 0 Z " fill="#DCE2E2" transform="translate(332,262)"/>
<path d="M0 0 C0.33 0.99 0.66 1.98 1 3 C1.66 3 2.32 3 3 3 C3 6.63 3 10.26 3 14 C2.34 13.67 1.68 13.34 1 13 C0.5859375 10.05859375 0.5859375 10.05859375 0.375 6.4375 C0.30023438 5.23996094 0.22546875 4.04242188 0.1484375 2.80859375 C0.09945312 1.88175781 0.05046875 0.95492187 0 0 Z " fill="#8E9DA4" transform="translate(233,229)"/>
<path d="M0 0 C1.32 0 2.64 0 4 0 C4.1875 2.375 4.1875 2.375 4 5 C3.01 5.66 2.02 6.32 1 7 C0.67 4.69 0.34 2.38 0 0 Z " fill="#6697A5" transform="translate(284,281)"/>
<path d="M0 0 C0.99 0 1.98 0 3 0 C3 4.62 3 9.24 3 14 C2.67 14 2.34 14 2 14 C2 10.37 2 6.74 2 3 C1.34 3 0.68 3 0 3 C0 2.01 0 1.02 0 0 Z " fill="#ECECEC" transform="translate(252,180)"/>
<path d="M0 0 C0 0.99 0 1.98 0 3 C-1.175625 3.433125 -1.175625 3.433125 -2.375 3.875 C-5.09671632 4.84912254 -5.09671632 4.84912254 -7 7 C-6.6875 4.625 -6.6875 4.625 -6 2 C-3 0 -3 0 0 0 Z " fill="#949494" transform="translate(221,311)"/>
<path d="M0 0 C0 0.99 0 1.98 0 3 C-2.3125 5.25 -2.3125 5.25 -5 7 C-5.99 6.67 -6.98 6.34 -8 6 C-5.36 4.02 -2.72 2.04 0 0 Z " fill="#07DBDB" transform="translate(176,252)"/>
<path d="M0 0 C1.485 0.99 1.485 0.99 3 2 C3.1875 5.625 3.1875 5.625 3 9 C0.9375 6.75 0.9375 6.75 -1 4 C-0.75 1.6875 -0.75 1.6875 0 0 Z " fill="#525D5D" transform="translate(338,218)"/>
<path d="M0 0 C0.66 0 1.32 0 2 0 C2.1875 2.8125 2.1875 2.8125 2 6 C1.01 6.99 0.02 7.98 -1 9 C-0.67 6.03 -0.34 3.06 0 0 Z " fill="#BFBFBF" transform="translate(235,318)"/>
<path d="M0 0 C0.66 0.66 1.32 1.32 2 2 C1.01 2.33 0.02 2.66 -1 3 C-1 6.3 -1 9.6 -1 13 C-1.33 13 -1.66 13 -2 13 C-2 9.04 -2 5.08 -2 1 C-1.34 0.67 -0.68 0.34 0 0 Z " fill="#929292" transform="translate(255,313)"/>
<path d="M0 0 C-0.66 1.32 -1.32 2.64 -2 4 C-2.66 4 -3.32 4 -4 4 C-4.66 2.68 -5.32 1.36 -6 0 C-3.50907189 -1.24546405 -2.58919267 -0.7767578 0 0 Z " fill="#8E8E8E" transform="translate(280,313)"/>
<path d="M0 0 C1.65 0 3.3 0 5 0 C5 0.66 5 1.32 5 2 C4.34 2 3.68 2 3 2 C2.67 3.32 2.34 4.64 2 6 C0 3 0 3 0 0 Z " fill="#6F7171" transform="translate(241,289)"/>
<path d="M0 0 C0.33 0 0.66 0 1 0 C1.08131463 1.43655854 1.13933559 2.8744483 1.1875 4.3125 C1.23970703 5.51326172 1.23970703 5.51326172 1.29296875 6.73828125 C0.93801608 9.47851584 0.10633718 10.29171079 -2 12 C-1.44687265 7.97007218 -0.8441938 3.97977076 0 0 Z " fill="#DCDCDC" transform="translate(340,259)"/>
<path d="M0 0 C1.98 0.99 3.96 1.98 6 3 C5.01 4.485 5.01 4.485 4 6 C2.35 4.35 0.7 2.7 -1 1 C-0.67 0.67 -0.34 0.34 0 0 Z " fill="#D3928F" transform="translate(189,223)"/>
<path d="M0 0 C0.66 0.33 1.32 0.66 2 1 C0.15794162 3.54379491 -1.72478134 5.83312509 -4 8 C-4.33 6.68 -4.66 5.36 -5 4 C-3.35 2.68 -1.7 1.36 0 0 Z " fill="#E3E3E3" transform="translate(192,193)"/>
<path d="M0 0 C0.99 0.33 1.98 0.66 3 1 C2.1875 2.9375 2.1875 2.9375 1 5 C0.01 5.33 -0.98 5.66 -2 6 C-1.125 1.125 -1.125 1.125 0 0 Z " fill="#E1E1E1" transform="translate(315,310)"/>
<path d="M0 0 C1.98 0 3.96 0 6 0 C6 0.99 6 1.98 6 3 C4.35 3 2.7 3 1 3 C0.67 2.01 0.34 1.02 0 0 Z " fill="#E2E25D" transform="translate(229,259)"/>
<path d="M0 0 C0.99 0.33 1.98 0.66 3 1 C2.67 1.99 2.34 2.98 2 4 C0.02 4 -1.96 4 -4 4 C-2.68 2.68 -1.36 1.36 0 0 Z " fill="#45C3EE" transform="translate(280,253)"/>
<path d="M0 0 C0.66 0.33 1.32 0.66 2 1 C1.34 1.66 0.68 2.32 0 3 C0.33 3.66 0.66 4.32 1 5 C-0.32 5.33 -1.64 5.66 -3 6 C-3 5.34 -3 4.68 -3 4 C-3.66 3.67 -4.32 3.34 -5 3 C-2.625 1.4375 -2.625 1.4375 0 0 Z " fill="#676767" transform="translate(221,169)"/>
</svg>
